<svg width="130" height="130" viewBox="0 0 130 130" fill="none" xmlns="http://www.w3.org/2000/svg">
<path d="M63 3L64.0005 0H66.0005L67.0001 3V127.068L66.0005 130H64.0005L63.3748 128.166L63.0005 127.068L63 3Z" fill="#E1E1D2"/>
<path d="M56.5309 3.54875L57.2123 0.460606L59.2013 0.251549L60.509 3.13063L73.4777 126.519L72.79 129.539L70.801 129.748L69.987 127.99L69.5 126.937L56.5309 3.54875Z" fill="#E1E1D2"/>
<path d="M50.1535 4.77075L50.5084 1.62829L52.4647 1.21247L54.0662 3.93909L79.8614 125.296L79.4932 128.372L77.5369 128.787L76.5436 127.123L75.9493 126.128L50.1535 4.77075Z" fill="#E1E1D2"/>
<path d="M43.9393 6.65249L43.9637 3.49015L45.8658 2.87211L47.7435 5.4164L86.0828 123.412L86.0381 126.509L84.1359 127.127L82.9741 125.576L82.279 124.648L43.9393 6.65249Z" fill="#E1E1D2"/>
<path d="M37.9556 9.17362L37.6493 6.02605L39.4764 5.21257L41.6098 7.54665L92.0729 120.889L92.3522 123.973L90.5251 124.787L89.2075 123.366L88.4192 122.515L37.9556 9.17362Z" fill="#E1E1D2"/>
<path d="M32.2681 12.3065L31.6345 9.20813L33.3666 8.20813L35.7322 10.3064L97.7664 117.753L98.3666 120.791L96.6345 121.791L95.1756 120.516L94.3027 119.753L32.2681 12.3065Z" fill="#E1E1D2"/>
<path d="M26.9391 16.0165L25.9852 13.0014L27.6032 11.8258L30.1753 13.6654L103.101 114.039L104.015 116.998L102.397 118.174L100.813 117.058L99.8651 116.39L26.9391 16.0165Z" fill="#E1E1D2"/>
<path d="M22.0279 20.2632L20.764 17.3644L22.2503 16.0261L25.0005 17.5867L108.018 109.787L109.237 112.635L107.751 113.973L106.059 113.029L105.046 112.464L22.0279 20.2632Z" fill="#E1E1D2"/>
<path d="M17.5869 25.0002L16.0269 22.2493L17.3651 20.763L20.2634 22.0276L112.464 105.046L113.974 107.75L112.636 109.236L110.854 108.474L109.788 108.018L17.5869 25.0002Z" fill="#E1E1D2"/>
<path d="M13.6653 30.1753L11.8264 27.6026L13.0019 25.9845L16.0165 26.9392L116.39 99.8648L118.174 102.397L116.999 104.015L115.147 103.443L114.039 103.1L13.6653 30.1753Z" fill="#E1E1D2"/>
<path d="M10.3061 35.7321L8.20825 33.3656L9.20825 31.6336L12.3061 32.2679L119.752 94.3021L121.792 96.6336L120.792 98.3656L118.89 97.9904L117.753 97.7658L10.3061 35.7321Z" fill="#E1E1D2"/>
<path d="M7.54679 41.6095L5.21309 39.4753L6.02656 37.6482L9.17376 37.9553L122.516 88.4184L124.787 90.524L123.974 92.3511L122.044 92.1766L120.889 92.0722L7.54679 41.6095Z" fill="#E1E1D2"/>
<path d="M5.41665 47.743L2.87264 45.8644L3.49068 43.9623L6.65273 43.9387L124.649 82.2779L127.128 84.1345L126.51 86.0366L124.572 86.0649L123.413 86.0817L5.41665 47.743Z" fill="#E1E1D2"/>
<path d="M3.93835 54.0656L1.21192 52.4633L1.62774 50.507L4.77001 50.153L126.127 75.9482L128.787 77.5355L128.371 79.4918L126.447 79.7225L125.296 79.8604L3.93835 54.0656Z" fill="#E1E1D2"/>
<path d="M3.13005 60.5082L0.251064 59.1996L0.460121 57.2105L3.54817 56.53L126.937 69.4987L129.748 70.7992L129.539 72.7883L127.649 73.2188L126.519 73.4764L3.13005 60.5082Z" fill="#E1E1D2"/>
<path d="M3 66.9999L0 65.9994L0 63.9994L3 62.9998H127.068L130 63.9994V65.9994L128.166 66.6251L127.068 66.9994L3 66.9999Z" fill="#E1E1D2"/>
<path d="M3.54802 73.4697L0.459874 72.7883L0.250817 70.7993L3.1299 69.4916L126.519 56.5229L129.539 57.2106L129.748 59.1996L127.989 60.0136L126.937 60.5006L3.54802 73.4697Z" fill="#E1E1D2"/>
<path d="M4.77038 79.8467L1.62792 79.4918L1.2121 77.5355L3.93872 75.9341L125.296 50.1388L128.371 50.507L128.787 52.4633L127.123 53.4567L126.127 54.051L4.77038 79.8467Z" fill="#E1E1D2"/>
<path d="M6.652 86.0611L3.48966 86.0366L2.87163 84.1345L5.41591 82.2568L123.412 43.9176L126.509 43.9623L127.127 45.8644L125.576 47.0263L124.648 47.7214L6.652 86.0611Z" fill="#E1E1D2"/>
<path d="M9.17325 92.0447L6.02568 92.3509L5.21221 90.5238L7.54628 88.3904L120.888 37.9273L123.973 37.6481L124.787 39.4751L123.365 40.7928L122.515 41.5811L9.17325 92.0447Z" fill="#E1E1D2"/>
<path d="M12.3061 97.7319L9.20776 98.3655L8.20776 96.6334L10.3061 94.2678L117.752 32.2336L120.791 31.6334L121.791 33.3655L120.515 34.8244L119.752 35.6973L12.3061 97.7319Z" fill="#E1E1D2"/>
<path d="M16.0164 103.061L13.0013 104.015L11.8257 102.397L13.6652 99.8245L114.039 26.899L116.998 25.9844L118.173 27.6025L117.057 29.1868L116.39 30.1347L16.0164 103.061Z" fill="#E1E1D2"/>
<path d="M20.2631 107.972L17.3642 109.236L16.026 107.75L17.5866 105L109.787 21.9818L112.635 20.763L113.973 22.2493L113.029 23.9415L112.464 24.9541L20.2631 107.972Z" fill="#E1E1D2"/>
<path d="M25.0001 112.413L22.2492 113.973L20.7629 112.635L22.0274 109.737L105.045 17.536L107.75 16.0262L109.236 17.3644L108.474 19.1461L108.018 20.2122L25.0001 112.413Z" fill="#E1E1D2"/>
<path d="M30.1755 116.335L27.6027 118.174L25.9847 116.998L26.9394 113.983L99.8649 13.61L102.397 11.8258L104.015 13.0013L103.443 14.853L103.101 15.9609L30.1755 116.335Z" fill="#E1E1D2"/>
<path d="M35.7319 119.694L33.3655 121.791L31.6334 120.791L32.2678 117.694L94.302 10.2472L96.6334 8.20808L98.3655 9.20808L97.9903 11.1094L97.7657 12.247L35.7319 119.694Z" fill="#E1E1D2"/>
<path d="M41.6094 122.453L39.4752 124.787L37.6481 123.974L37.9551 120.826L88.4183 7.48429L90.5238 5.21266L92.3509 6.02613L92.1765 7.95622L92.0721 9.11106L41.6094 122.453Z" fill="#E1E1D2"/>
<path d="M47.743 124.583L45.8644 127.127L43.9623 126.509L43.9387 123.347L82.2779 5.35138L84.1345 2.8721L86.0366 3.49014L86.0649 5.42788L86.0817 6.58732L47.743 124.583Z" fill="#E1E1D2"/>
<path d="M54.0656 126.061L52.4633 128.787L50.507 128.372L50.153 125.229L75.9482 3.8721L77.5355 1.21234L79.4918 1.62816L79.7225 3.55234L79.8604 4.70366L54.0656 126.061Z" fill="#E1E1D2"/>
<path d="M60.5079 126.869L59.1993 129.748L57.2103 129.539L56.5298 126.451L69.4984 3.06253L70.799 0.251428L72.788 0.460484L73.2186 2.35001L73.4761 3.4806L60.5079 126.869Z" fill="#E1E1D2"/>
<circle cx="65" cy="64.9973" r="62" fill="#E1E1D2"/>
<circle cx="65.0005" cy="64.9973" r="18" fill="#FFFFF0"/>
<circle cx="65.0005" cy="24.9973" r="12" fill="#FFFFF0"/>
<circle cx="99.6414" cy="84.997" r="12" transform="rotate(120 99.6414 84.997)" fill="#FFFFF0"/>
<circle cx="99.6409" cy="44.9972" r="12" transform="rotate(60 99.6409 44.9972)" fill="#FFFFF0"/>
<circle cx="30.3592" cy="44.997" r="12" transform="rotate(120 30.3592 44.997)" fill="#FFFFF0"/>
<circle cx="30.3592" cy="84.9973" r="12" transform="rotate(60 30.3592 84.9973)" fill="#FFFFF0"/>
<circle cx="65.0005" cy="104.997" r="12" fill="#FFFFF0"/>
</svg>
