<svg width="157" height="157" viewBox="0 0 157 157" fill="none" xmlns="http://www.w3.org/2000/svg">
<path d="M76.124 16.1272L77.1245 13.1272L79.1245 13.1272L80.1241 16.1272L80.1241 140.196L79.1245 143.127H77.1245L76.4988 141.293L76.1245 140.196L76.124 16.1272Z" fill="#E1E1D2"/>
<path d="M69.6549 16.6759L70.3363 13.5878L72.3254 13.3787L73.633 16.2578L86.6017 139.647L85.9141 142.667L83.925 142.876L83.111 141.117L82.6241 140.065L69.6549 16.6759Z" fill="#E1E1D2"/>
<path d="M63.2775 17.8979L63.6324 14.7555L65.5887 14.3397L67.1902 17.0663L92.9855 138.423L92.6173 141.499L90.661 141.915L89.6676 140.251L89.0733 139.255L63.2775 17.8979Z" fill="#E1E1D2"/>
<path d="M57.0633 19.7797L57.0878 16.6173L58.9899 15.9993L60.8676 18.5436L99.2068 136.54L99.1621 139.637L97.26 140.255L96.0981 138.704L95.403 137.776L57.0633 19.7797Z" fill="#E1E1D2"/>
<path d="M51.0796 22.3008L50.7734 19.1532L52.6005 18.3398L54.7338 20.6738L105.197 134.016L105.476 137.101L103.649 137.914L102.331 136.493L101.543 135.643L51.0796 22.3008Z" fill="#E1E1D2"/>
<path d="M45.3921 25.4336L44.7585 22.3353L46.4906 21.3353L48.8562 23.4336L110.89 130.88L111.491 133.919L109.759 134.919L108.3 133.643L107.427 132.88L45.3921 25.4336Z" fill="#E1E1D2"/>
<path d="M40.0632 29.1437L39.1092 26.1286L40.7273 24.953L43.2993 26.7926L116.225 127.166L117.139 130.125L115.521 131.301L113.937 130.185L112.989 129.517L40.0632 29.1437Z" fill="#E1E1D2"/>
<path d="M35.1519 33.3904L33.888 30.4916L35.3743 29.1533L38.1245 30.7139L121.142 122.915L122.361 125.762L120.875 127.1L119.183 126.156L118.17 125.591L35.1519 33.3904Z" fill="#E1E1D2"/>
<path d="M30.7109 38.1274L29.1509 35.3765L30.4892 33.8902L33.3874 35.1548L125.588 118.173L127.098 120.877L125.76 122.363L123.978 121.601L122.912 121.145L30.7109 38.1274Z" fill="#E1E1D2"/>
<path d="M26.7894 43.3025L24.9504 40.7298L26.1259 39.1117L29.1405 40.0664L129.514 112.992L131.298 115.524L130.123 117.142L128.271 116.57L127.163 116.228L26.7894 43.3025Z" fill="#E1E1D2"/>
<path d="M23.4301 48.8593L21.3323 46.4928L22.3323 44.7608L25.4301 45.3951L132.876 107.429L134.916 109.761L133.916 111.493L132.014 111.118L130.877 110.893L23.4301 48.8593Z" fill="#E1E1D2"/>
<path d="M20.6708 54.7367L18.3371 52.6025L19.1506 50.7754L22.2978 51.0825L135.64 101.546L137.911 103.651L137.098 105.478L135.168 105.304L134.013 105.199L20.6708 54.7367Z" fill="#E1E1D2"/>
<path d="M18.5407 60.8702L15.9967 58.9916L16.6147 57.0895L19.7768 57.0659L137.773 95.4051L140.252 97.2617L139.634 99.1638L137.696 99.1921L136.537 99.2089L18.5407 60.8702Z" fill="#E1E1D2"/>
<path d="M17.0633 67.1928L14.3369 65.5905L14.7527 63.6342L17.895 63.2802L139.252 89.0754L141.912 90.6627L141.496 92.619L139.572 92.8497L138.421 92.9876L17.0633 67.1928Z" fill="#E1E1D2"/>
<path d="M16.255 73.6354L13.3761 72.3268L13.5851 70.3377L16.6732 69.6572L140.062 82.6259L142.873 83.9264L142.664 85.9155L140.774 86.346L139.644 86.6036L16.255 73.6354Z" fill="#E1E1D2"/>
<path d="M16.124 80.1271L13.124 79.1266L13.124 77.1266L16.124 76.127L140.192 76.127L143.124 77.1266V79.1266L141.29 79.7523L140.192 80.1266L16.124 80.1271Z" fill="#E1E1D2"/>
<path d="M16.673 86.5969L13.5849 85.9155L13.3758 83.9265L16.2549 82.6188L139.644 69.6501L142.664 70.3378L142.873 72.3268L141.114 73.1408L140.062 73.6278L16.673 86.5969Z" fill="#E1E1D2"/>
<path d="M17.8944 92.9739L14.7519 92.619L14.3361 90.6627L17.0627 89.0613L138.42 63.266L141.495 63.6342L141.911 65.5905L140.247 66.5839L139.251 67.1782L17.8944 92.9739Z" fill="#E1E1D2"/>
<path d="M19.776 99.1883L16.6137 99.1638L15.9956 97.2617L18.5399 95.384L136.536 57.0448L139.633 57.0895L140.251 58.9916L138.7 60.1535L137.772 60.8486L19.776 99.1883Z" fill="#E1E1D2"/>
<path d="M22.2973 105.172L19.1497 105.478L18.3362 103.651L20.6703 101.518L134.012 51.0545L137.097 50.7752L137.911 52.6023L136.49 53.92L135.639 54.7083L22.2973 105.172Z" fill="#E1E1D2"/>
<path d="M25.4301 110.859L22.3318 111.493L21.3318 109.761L23.4301 107.395L130.876 45.3608L133.915 44.7606L134.915 46.4927L133.64 47.9516L132.876 48.8245L25.4301 110.859Z" fill="#E1E1D2"/>
<path d="M29.1404 116.188L26.1253 117.142L24.9497 115.524L26.7893 112.952L127.163 40.0262L130.122 39.1116L131.298 40.7297L130.181 42.314L129.514 43.2619L29.1404 116.188Z" fill="#E1E1D2"/>
<path d="M33.3871 121.1L30.4883 122.363L29.15 120.877L30.7106 118.127L122.911 35.109L125.759 33.8902L127.097 35.3765L126.153 37.0687L125.588 38.0813L33.3871 121.1Z" fill="#E1E1D2"/>
<path d="M38.1241 125.54L35.3732 127.1L33.8869 125.762L35.1515 122.864L118.169 30.6632L120.874 29.1534L122.36 30.4916L121.598 32.2733L121.142 33.3394L38.1241 125.54Z" fill="#E1E1D2"/>
<path d="M43.2995 129.462L40.7267 131.301L39.1087 130.125L40.0634 127.111L112.989 26.7372L115.521 24.9529L117.139 26.1285L116.567 27.9802L116.225 29.0881L43.2995 129.462Z" fill="#E1E1D2"/>
<path d="M48.856 132.821L46.4895 134.919L44.7575 133.919L45.3918 130.821L107.426 23.3744L109.757 21.3353L111.49 22.3353L111.114 24.2366L110.89 25.3742L48.856 132.821Z" fill="#E1E1D2"/>
<path d="M54.7334 135.581L52.5992 137.914L50.7721 137.101L51.0792 133.954L101.542 20.6115L103.648 18.3399L105.475 19.1533L105.301 21.0834L105.196 22.2383L54.7334 135.581Z" fill="#E1E1D2"/>
<path d="M60.867 137.711L58.9884 140.255L57.0863 139.637L57.0627 136.475L95.4019 18.4786L97.2585 15.9993L99.1606 16.6173L99.1889 18.5551L99.2058 19.7145L60.867 137.711Z" fill="#E1E1D2"/>
<path d="M67.1897 139.188L65.5873 141.915L63.631 141.499L63.277 138.356L89.0723 16.9993L90.6595 14.3395L92.6158 14.7554L92.8465 16.6795L92.9844 17.8309L67.1897 139.188Z" fill="#E1E1D2"/>
<path d="M73.6319 139.997L72.3234 142.876L70.3343 142.666L69.6538 139.578L82.6225 16.1897L83.923 13.3786L85.9121 13.5877L86.3426 15.4772L86.6001 16.6078L73.6319 139.997Z" fill="#E1E1D2"/>
<circle cx="78.1246" cy="78.1246" r="62" transform="rotate(-72 78.1246 78.1246)" fill="#E1E1D2"/>
<circle cx="78.124" cy="78.1272" r="50" fill="#FFFFF0"/>
<circle cx="78.124" cy="78.1272" r="20" fill="#E1E1D2"/>
<circle cx="78.124" cy="78.1272" r="20" fill="#E1E1D2"/>
<circle cx="78.124" cy="78.1272" r="10" fill="#FFFFF0"/>
<rect x="74.127" y="26.126" width="8" height="37" fill="#E1E1D2"/>
<rect x="126.343" y="58.2542" width="8" height="37" transform="rotate(72 126.343 58.2542)" fill="#E1E1D2"/>
<rect x="112.511" y="118.652" width="8" height="37" transform="rotate(144 112.511 118.652)" fill="#E1E1D2"/>
<rect x="50.7944" y="122.542" width="8" height="37" transform="rotate(-144 50.7944 122.542)" fill="#E1E1D2"/>
<rect x="25.5312" y="65.2444" width="8" height="37" transform="rotate(-72 25.5312 65.2444)" fill="#E1E1D2"/>
</svg>
