<svg width="157" height="157" viewBox="0 0 157 157" fill="none" xmlns="http://www.w3.org/2000/svg">
<path d="M80.125 140.122L79.1245 143.122H77.1245L76.1249 140.122L76.1249 16.0536L77.1245 13.1219H79.1245L79.7502 14.9561L80.1245 16.0536L80.125 140.122Z" fill="#E1E1D2"/>
<path d="M86.5941 139.573L85.9127 142.661L83.9237 142.87L82.616 139.991L69.6473 16.6026L70.335 13.5826L72.324 13.3735L73.138 15.1322L73.625 16.1846L86.5941 139.573Z" fill="#E1E1D2"/>
<path d="M92.9715 138.351L92.6166 141.494L90.6603 141.909L89.0588 139.183L63.2636 17.8257L63.6318 14.7503L65.5881 14.3345L66.5814 15.9985L67.1757 16.9941L92.9715 138.351Z" fill="#E1E1D2"/>
<path d="M99.1857 136.469L99.1613 139.632L97.2592 140.25L95.3815 137.706L57.0422 19.7095L57.0869 16.6125L58.9891 15.9944L60.1509 17.5455L60.846 18.4736L99.1857 136.469Z" fill="#E1E1D2"/>
<path d="M105.169 133.948L105.476 137.096L103.649 137.909L101.515 135.575L51.0521 22.2332L50.7728 19.1485L52.5999 18.335L53.9175 19.7561L54.7058 20.6065L105.169 133.948Z" fill="#E1E1D2"/>
<path d="M110.857 130.815L111.49 133.914L109.758 134.914L107.393 132.816L45.3586 25.3692L44.7584 22.3305L46.4905 21.3305L47.9494 22.6061L48.8223 23.3694L110.857 130.815Z" fill="#E1E1D2"/>
<path d="M116.186 127.105L117.14 130.121L115.522 131.296L112.95 129.457L40.0242 29.0832L39.1097 26.1239L40.7277 24.9483L42.312 26.0644L43.2599 26.7323L116.186 127.105Z" fill="#E1E1D2"/>
<path d="M121.097 122.859L122.361 125.758L120.875 127.096L118.124 125.535L35.1065 33.3345L33.8877 30.487L35.374 29.1488L37.0663 30.0931L38.0788 30.6583L121.097 122.859Z" fill="#E1E1D2"/>
<path d="M125.538 118.122L127.098 120.873L125.76 122.359L122.862 121.094L30.6608 38.0764L29.151 35.372L30.4893 33.8857L32.271 34.648L33.3371 35.1042L125.538 118.122Z" fill="#E1E1D2"/>
<path d="M129.46 112.947L131.299 115.519L130.123 117.137L127.108 116.183L26.7351 43.2572L24.9509 40.7253L26.1264 39.1073L27.9781 39.6792L29.086 40.0215L129.46 112.947Z" fill="#E1E1D2"/>
<path d="M132.819 107.39L134.917 109.756L133.917 111.488L130.819 110.854L23.3725 48.8199L21.3334 46.4884L22.3334 44.7563L24.2347 45.1316L25.3723 45.3561L132.819 107.39Z" fill="#E1E1D2"/>
<path d="M135.578 101.512L137.912 103.647L137.098 105.474L133.951 105.167L20.6092 54.7035L18.3375 52.598L19.151 50.7709L21.0811 50.9453L22.2359 51.0498L135.578 101.512Z" fill="#E1E1D2"/>
<path d="M137.708 95.379L140.252 97.2576L139.634 99.1597L136.472 99.1833L18.4763 60.844L15.997 58.9875L16.615 57.0853L18.5528 57.0571L19.7122 57.0402L137.708 95.379Z" fill="#E1E1D2"/>
<path d="M139.186 89.0563L141.913 90.6587L141.497 92.615L138.355 92.969L16.9973 67.1737L14.3376 65.5865L14.7534 63.6302L16.6776 63.3995L17.8289 63.2615L139.186 89.0563Z" fill="#E1E1D2"/>
<path d="M139.994 82.6138L142.873 83.9224L142.664 85.9114L139.576 86.5919L16.1877 73.6233L13.3765 72.3227L13.5856 70.3337L15.4751 69.9031L16.6057 69.6456L139.994 82.6138Z" fill="#E1E1D2"/>
<path d="M140.125 76.1221L143.125 77.1226V79.1226L140.125 80.1221L16.0567 80.1221L13.125 79.1226V77.1226L14.9592 76.4969L16.0567 76.1226L140.125 76.1221Z" fill="#E1E1D2"/>
<path d="M139.576 69.6522L142.665 70.3336L142.874 72.3227L139.995 73.6304L16.6059 86.599L13.5859 85.9114L13.3768 83.9223L15.1355 83.1083L16.1879 82.6214L139.576 69.6522Z" fill="#E1E1D2"/>
<path d="M138.355 63.2752L141.497 63.6301L141.913 65.5864L139.186 67.1879L17.8291 92.9831L14.7537 92.6149L14.3379 90.6586L16.0019 89.6653L16.9976 89.071L138.355 63.2752Z" fill="#E1E1D2"/>
<path d="M136.473 57.0608L139.635 57.0853L140.253 58.9874L137.709 60.8651L19.7131 99.2043L16.616 99.1596L15.998 97.2575L17.549 96.0956L18.4771 95.4005L136.473 57.0608Z" fill="#E1E1D2"/>
<path d="M133.952 51.0773L137.099 50.771L137.913 52.5981L135.579 54.7315L22.2366 105.195L19.1519 105.474L18.3384 103.647L19.7595 102.329L20.6099 101.541L133.952 51.0773Z" fill="#E1E1D2"/>
<path d="M130.819 45.39L133.917 44.7565L134.917 46.4885L132.819 48.8542L25.3726 110.888L22.3339 111.489L21.3339 109.756L22.6095 108.298L23.3728 107.425L130.819 45.39Z" fill="#E1E1D2"/>
<path d="M127.109 40.0613L130.124 39.1074L131.299 40.7254L129.46 43.2974L29.0864 116.223L26.1271 117.138L24.9515 115.519L26.0676 113.935L26.7355 112.987L127.109 40.0613Z" fill="#E1E1D2"/>
<path d="M122.862 35.1496L125.761 33.8857L127.099 35.372L125.538 38.1222L33.3377 121.14L30.4902 122.359L29.1519 120.873L30.0963 119.18L30.6614 118.168L122.862 35.1496Z" fill="#E1E1D2"/>
<path d="M118.125 30.7087L120.876 29.1487L122.362 30.487L121.098 33.3852L38.0796 125.586L35.3751 127.096L33.8889 125.758L34.6512 123.976L35.1074 122.91L118.125 30.7087Z" fill="#E1E1D2"/>
<path d="M112.95 26.7874L115.522 24.9484L117.14 26.124L116.186 29.1386L43.2601 129.512L40.7283 131.296L39.1102 130.121L39.6821 128.269L40.0244 127.161L112.95 26.7874Z" fill="#E1E1D2"/>
<path d="M107.393 23.4284L109.76 21.3306L111.492 22.3306L110.857 25.4284L48.823 132.875L46.4916 134.914L44.7595 133.914L45.1347 132.013L45.3593 130.875L107.393 23.4284Z" fill="#E1E1D2"/>
<path d="M101.516 20.6686L103.65 18.3349L105.477 19.1484L105.17 22.2956L54.7067 135.638L52.6012 137.909L50.7741 137.096L50.9485 135.166L51.0529 134.011L101.516 20.6686Z" fill="#E1E1D2"/>
<path d="M95.382 18.5385L97.2606 15.9945L99.1627 16.6125L99.1863 19.7746L60.8471 137.771L58.9905 140.25L57.0884 139.632L57.0601 137.694L57.0433 136.535L95.382 18.5385Z" fill="#E1E1D2"/>
<path d="M89.0594 17.061L90.6617 14.3346L92.618 14.7504L92.972 17.8927L67.1768 139.25L65.5895 141.91L63.6332 141.494L63.4025 139.57L63.2646 138.418L89.0594 17.061Z" fill="#E1E1D2"/>
<path d="M82.6171 16.2526L83.9257 13.3736L85.9147 13.5827L86.5952 16.6707L73.6266 140.059L72.326 142.871L70.337 142.661L69.9064 140.772L69.6489 139.641L82.6171 16.2526Z" fill="#E1E1D2"/>
<circle cx="78.249" cy="78.2491" r="50" transform="rotate(-180 78.249 78.2491)" fill="#E1E1D2"/>
<path d="M49.6389 119.223C51.558 113.14 55.366 107.827 60.5102 104.055C65.6544 100.284 71.8668 98.2499 78.2455 98.2491C84.6243 98.2484 90.8372 100.281 95.9822 104.051C101.127 107.822 104.936 113.134 106.857 119.217L103.249 122.249L93.749 126.249L86.249 127.668L83.249 128.249H80.749H78.2489H74.249L69.749 127.749L62.749 126.249L55.749 123.249L52.249 121.249L49.6389 119.223Z" fill="#FFFFF0"/>
<path d="M37.0258 48.9999C43.109 50.919 48.4221 54.7271 52.1938 59.8713C55.9654 65.0155 57.9993 71.2279 58 77.6066C58.0007 83.9853 55.9683 90.1982 52.1978 95.3433C48.4272 100.488 43.115 104.298 37.0322 106.218L34 102.61L30 93.1101L28.5807 85.6101L28 82.6101V80.1101V77.61L28 73.6101L28.5 69.1101L30 62.1101L33 55.1101L35 51.6101L37.0258 48.9999Z" fill="#FFFFF0"/>
<path d="M106.218 37.0257C104.299 43.1089 100.491 48.422 95.3467 52.1937C90.2025 55.9653 83.9901 57.9992 77.6114 57.9999C71.2327 58.0006 65.0198 55.9681 59.8748 52.1976C54.7297 48.4271 50.9205 43.1148 49 37.0321L52.6079 33.9999L62.1079 29.9999L69.6079 28.5805L72.6079 27.9999H75.1079H77.608H81.6079L86.1079 28.4999L93.1079 29.9999L100.108 32.9999L103.608 34.9999L106.218 37.0257Z" fill="#FFFFF0"/>
<path d="M118.974 106.218C112.891 104.299 107.578 100.491 103.806 95.3466C100.035 90.2024 98.0007 83.99 98 77.6113C97.9993 71.2326 100.032 65.0196 103.802 59.8746C107.573 54.7296 112.885 50.9203 118.968 48.9999L122 52.6078L126 62.1078L127.419 69.6078L128 72.6078V75.1078V77.6079V81.6078L127.5 86.1078L126 93.1078L123 100.108L121 103.608L118.974 106.218Z" fill="#FFFFF0"/>
<circle cx="78" cy="77.9999" r="10" fill="#FFFFF0"/>
<path d="M58.9654 137.09C26.3997 126.509 8.57771 91.5313 19.159 58.9655C29.7402 26.3998 64.7178 8.57781 97.2835 19.1591C129.849 29.7403 147.671 64.7179 137.09 97.2836C126.509 129.849 91.5312 147.671 58.9654 137.09ZM93.3395 31.2974C67.4776 22.8943 39.7003 37.0475 31.2973 62.9095C22.8942 88.7714 37.0474 116.549 62.9094 124.952C88.7713 133.355 116.549 119.202 124.952 93.3396C133.355 67.4777 119.201 39.7004 93.3395 31.2974Z" fill="#E1E1D2"/>
</svg>
