<svg width="46" height="46" viewBox="0 0 46 46" fill="none" xmlns="http://www.w3.org/2000/svg">
<path d="M14.7896 9.11604C22.2031 4.83584 31.6828 7.3759 35.963 14.7894C40.2432 22.203 37.7031 31.6826 30.2896 35.9628C22.8761 40.243 13.3964 37.703 9.11621 30.2894C4.836 22.8759 7.37607 13.3962 14.7896 9.11604ZM24.912 26.6485C27.1813 25.3383 27.9589 22.4364 26.6487 20.1671C25.3384 17.8977 22.4366 17.1202 20.1672 18.4304C17.8979 19.7406 17.1203 22.6424 18.4305 24.9118C19.7408 27.1812 22.6426 27.9587 24.912 26.6485Z" fill="#E1E1D2"/>
<path d="M35.3467 15.7225L34.8467 14.8564L36.5787 13.8564L37.0787 14.7225L35.3467 15.7225Z" fill="#E1E1D2"/>
<path d="M8.5 31.2225L8 30.3564L9.73205 29.3564L10.2321 30.2225L8.5 31.2225Z" fill="#E1E1D2"/>
<path d="M15.2227 8.86603L14.3566 9.36603L13.8566 8.5L14.7227 8L15.2227 8.86603Z" fill="#E1E1D2"/>
<path d="M31.2227 36.5789L30.3566 37.0789L29.8566 36.2128L30.7227 35.7128L31.2227 36.5789Z" fill="#E1E1D2"/>
<path d="M34.1738 13.4294L33.531 12.6634L34.8576 11.5503L35.5004 12.3163L34.1738 13.4294Z" fill="#E1E1D2"/>
<path d="M10.2212 33.5283L9.5784 32.7622L11.0883 31.4952L11.7311 32.2613L10.2212 33.5283Z" fill="#E1E1D2"/>
<path d="M12.3164 35.5007L11.5504 34.8579L12.8983 33.2514L13.6644 33.8942L12.3164 35.5007Z" fill="#E1E1D2"/>
<path d="M32.4561 11.4996L31.69 10.8568L32.7626 9.57853L33.5286 10.2213L32.4561 11.4996Z" fill="#E1E1D2"/>
<path d="M14.7227 37.0789L13.8566 36.5789L14.5315 35.4101L15.3975 35.9101L14.7227 37.0789Z" fill="#E1E1D2"/>
<path d="M30.5293 9.70032L29.6633 9.20032L30.3563 7.99995L31.2223 8.49995L30.5293 9.70032Z" fill="#E1E1D2"/>
<path d="M17.3662 38.2156L16.4265 37.8736L17.1038 36.0126L18.0435 36.3546L17.3662 38.2156Z" fill="#E1E1D2"/>
<path d="M28.0513 8.85785L27.1116 8.51583L27.713 6.86342L28.6527 7.20544L28.0513 8.85785Z" fill="#E1E1D2"/>
<path d="M20.1665 38.8754L19.1817 38.7018L19.4584 37.1325L20.4432 37.3062L20.1665 38.8754Z" fill="#E1E1D2"/>
<path d="M25.6294 7.89233L24.6446 7.71869L24.9118 6.20304L25.8966 6.37669L25.6294 7.89233Z" fill="#E1E1D2"/>
<path d="M25.897 38.7018L24.9122 38.8754L24.5691 36.9299L25.5539 36.7562L25.897 38.7018Z" fill="#E1E1D2"/>
<path d="M20.3418 7.19604L19.357 7.36969L19.1819 6.37682L20.1667 6.20317L20.3418 7.19604Z" fill="#E1E1D2"/>
<path d="M23.0396 7.42572L22.0396 7.42572L22.0396 6.03948L23.0396 6.03948L23.0396 7.42572Z" fill="#E1E1D2"/>
<path d="M23.0391 39.0391L22.0391 39.0391L22.0391 37.1784L23.0391 37.1784L23.0391 39.0391Z" fill="#E1E1D2"/>
<path d="M28.6523 37.8732L27.7127 38.2152L27.0384 36.3628L27.9781 36.0208L28.6523 37.8732Z" fill="#E1E1D2"/>
<path d="M17.9766 8.54071L17.0369 8.88273L16.4264 7.20536L17.366 6.86334L17.9766 8.54071Z" fill="#E1E1D2"/>
<path d="M13.4009 10.8706L12.6348 11.5134L11.5507 10.2214L12.3167 9.57858L13.4009 10.8706Z" fill="#E1E1D2"/>
<path d="M33.5283 34.8578L32.7623 35.5006L31.8442 34.4065L32.6103 33.7638L33.5283 34.8578Z" fill="#E1E1D2"/>
<path d="M11.1201 12.3047L10.4773 13.0707L9.5784 12.3164L10.2212 11.5504L11.1201 12.3047Z" fill="#E1E1D2"/>
<path d="M35.5005 32.7625L34.8577 33.5285L33.9425 32.7605L34.5853 31.9945L35.5005 32.7625Z" fill="#E1E1D2"/>
<path d="M9.6875 14.5419L9.1875 15.4079L8.00001 14.7223L8.50001 13.8563L9.6875 14.5419Z" fill="#E1E1D2"/>
<path d="M37.0786 30.3561L36.5786 31.2222L35.4416 30.5657L35.9416 29.6997L37.0786 30.3561Z" fill="#E1E1D2"/>
<path d="M8.42627 16.8707L8.08425 17.8104L6.86349 17.3661L7.20551 16.4264L8.42627 16.8707Z" fill="#E1E1D2"/>
<path d="M38.2153 27.713L37.8733 28.6526L36.7568 28.2463L37.0988 27.3066L38.2153 27.713Z" fill="#E1E1D2"/>
<path d="M7.75342 19.4244L7.57977 20.4092L6.20337 20.1665L6.37702 19.1817L7.75342 19.4244Z" fill="#E1E1D2"/>
<path d="M38.8755 24.912L38.7018 25.8968L37.462 25.6782L37.6356 24.6934L38.8755 24.912Z" fill="#E1E1D2"/>
<path d="M7.36377 22.0393V23.0393H6.03937V22.0393H7.36377Z" fill="#E1E1D2"/>
<path d="M39.0396 22.0394V23.0394H37.9426V22.0394H39.0396Z" fill="#E1E1D2"/>
<path d="M8.07666 24.582L8.25031 25.5668L6.37695 25.8972L6.2033 24.9124L8.07666 24.582Z" fill="#E1E1D2"/>
<path d="M38.7021 19.1821L38.8758 20.1669L36.8717 20.5203L36.698 19.5355L38.7021 19.1821Z" fill="#E1E1D2"/>
<path d="M8.24658 27.209L8.5886 28.1487L7.2054 28.6521L6.86338 27.7124L8.24658 27.209Z" fill="#E1E1D2"/>
<path d="M37.873 16.426L38.2151 17.3657L36.5789 17.9612L36.2369 17.0215L37.873 16.426Z" fill="#E1E1D2"/>
<circle cx="22.5933" cy="12.5251" r="3.5" fill="#FFFFF0"/>
<circle cx="31.2536" cy="17.5252" r="3.5" transform="rotate(60 31.2536 17.5252)" fill="#FFFFF0"/>
<circle cx="31.2536" cy="27.5251" r="3.5" transform="rotate(120 31.2536 27.5251)" fill="#FFFFF0"/>
<circle cx="22.5933" cy="32.5251" r="3.5" transform="rotate(180 22.5933 32.5251)" fill="#FFFFF0"/>
<circle cx="13.9329" cy="27.5252" r="3.5" transform="rotate(-120 13.9329 27.5252)" fill="#FFFFF0"/>
<circle cx="13.9329" cy="17.5252" r="3.5" transform="rotate(-60 13.9329 17.5252)" fill="#FFFFF0"/>
<circle cx="29.5928" cy="22.5251" r="0.5" fill="#FFFFF0"/>
<circle cx="26.0929" cy="28.5869" r="0.5" transform="rotate(60 26.0929 28.5869)" fill="#FFFFF0"/>
<circle cx="19.025" cy="16.5313" r="0.5" transform="rotate(60 19.025 16.5313)" fill="#FFFFF0"/>
<circle cx="19.0934" cy="28.587" r="0.5" transform="rotate(120 19.0934 28.587)" fill="#FFFFF0"/>
<circle cx="26.0934" cy="16.4627" r="0.5" transform="rotate(120 26.0934 16.4627)" fill="#FFFFF0"/>
<circle cx="15.5928" cy="22.5251" r="0.5" fill="#FFFFF0"/>
</svg>
