<svg width="764" height="733" viewBox="0 0 764 733" fill="none" xmlns="http://www.w3.org/2000/svg">
<path d="M360.144 82.562L361.67 73.4697L369.659 73.051L372.127 81.934L403.529 681.112L402.471 687.412L402.003 690.204L394.014 690.623L393.397 688.402L391.545 681.74L360.144 82.562Z" fill="#E1E1D2"/>
<path d="M344.511 84.1074L345.559 74.9477L353.516 74.1115L356.445 82.8531L419.162 679.566L418.436 685.913L418.114 688.726L410.158 689.562L409.425 687.377L407.228 680.821L344.511 84.1074Z" fill="#E1E1D2"/>
<path d="M328.98 86.469L329.548 77.267L337.449 76.0155L340.832 84.5918L434.693 677.205L434.3 683.581L434.126 686.407L426.224 687.658L425.378 685.514L422.841 679.082L328.98 86.469Z" fill="#E1E1D2"/>
<path d="M313.594 89.64L313.679 80.4208L321.504 78.7576L325.332 87.1451L450.079 674.034L450.02 680.422L449.994 683.253L442.168 684.916L441.211 682.819L438.341 676.529L313.594 89.64Z" fill="#E1E1D2"/>
<path d="M298.395 93.612L297.997 84.4011L305.725 82.3305L309.986 90.5062L465.277 670.062L465.553 676.444L465.675 679.273L457.947 681.343L456.882 679.299L453.686 673.168L298.395 93.612Z" fill="#E1E1D2"/>
<path d="M283.425 98.374L282.546 89.1964L290.154 86.7243L294.837 94.6658L480.248 665.3L480.857 671.659L481.127 674.477L473.518 676.949L472.347 674.964L468.835 669.008L283.425 98.374Z" fill="#E1E1D2"/>
<path d="M268.724 103.913L267.366 94.794L274.835 91.9271L279.927 99.6126L494.948 659.761L496.306 668.88L488.838 671.747L487.564 669.825L483.745 664.061L268.724 103.913Z" fill="#E1E1D2"/>
<path d="M254.334 110.214L252.501 101.178L259.809 97.9243L265.297 105.333L509.339 653.46L511.173 662.495L503.864 665.749L502.492 663.897L498.376 658.341L254.334 110.214Z" fill="#E1E1D2"/>
<path d="M240.294 117.259L237.99 108.332L245.118 104.7L250.986 111.811L523.38 646.415L525.684 655.342L518.556 658.974L517.089 657.196L512.688 651.863L240.294 117.259Z" fill="#E1E1D2"/>
<path d="M226.641 125.029L223.873 116.235L230.801 112.235L237.033 119.029L537.033 638.644L539.801 647.439L532.873 651.439L531.315 649.74L526.641 644.644L226.641 125.029Z" fill="#E1E1D2"/>
<path d="M213.413 133.503L210.189 124.866L216.898 120.509L223.478 126.968L550.261 630.17L553.485 638.807L546.776 643.165L545.131 641.55L540.197 636.706L213.413 133.503Z" fill="#E1E1D2"/>
<path d="M200.647 142.658L196.975 134.202L203.448 129.499L210.356 135.605L563.027 621.015L566.699 629.472L560.227 634.174L558.5 632.648L553.319 628.069L200.647 142.658Z" fill="#E1E1D2"/>
<path d="M188.378 152.469L184.268 144.216L190.485 139.182L197.704 144.917L575.296 611.205L579.405 619.458L573.188 624.492L571.384 623.058L565.97 618.757L188.378 152.469Z" fill="#E1E1D2"/>
<path d="M176.639 162.908L172.103 154.882L178.048 149.529L185.557 154.879L587.035 600.766L591.571 608.792L585.626 614.145L583.749 612.808L578.117 608.795L176.639 162.908Z" fill="#E1E1D2"/>
<path d="M165.463 173.948L160.513 166.169L166.17 160.513L173.948 165.462L598.212 589.726L603.162 597.505L597.505 603.161L595.56 601.924L589.727 598.212L165.463 173.948Z" fill="#E1E1D2"/>
<path d="M154.879 185.557L149.529 178.048L154.882 172.103L162.908 176.639L608.795 578.117L614.145 585.626L608.792 591.571L606.786 590.437L600.766 587.035L154.879 185.557Z" fill="#E1E1D2"/>
<path d="M144.918 197.704L139.182 190.486L144.217 184.268L152.469 188.378L618.757 565.97L624.493 573.188L619.458 579.406L617.395 578.378L611.205 575.296L144.918 197.704Z" fill="#E1E1D2"/>
<path d="M135.605 210.356L129.5 203.448L134.202 196.975L142.659 200.647L628.069 553.319L634.175 560.227L629.472 566.699L627.358 565.781L621.016 563.027L135.605 210.356Z" fill="#E1E1D2"/>
<path d="M126.968 223.477L120.509 216.898L124.866 210.189L133.504 213.413L636.706 540.197L643.165 546.776L638.808 553.485L636.648 552.679L630.17 550.261L126.968 223.477Z" fill="#E1E1D2"/>
<path d="M119.029 237.033L112.235 230.801L116.235 223.873L125.029 226.641L644.644 526.641L651.439 532.873L647.439 539.801L645.24 539.109L638.644 537.033L119.029 237.033Z" fill="#E1E1D2"/>
<path d="M111.811 250.986L104.7 245.118L108.332 237.99L117.259 240.294L651.863 512.688L658.974 518.556L655.342 525.684L653.11 525.108L646.415 523.38L111.811 250.986Z" fill="#E1E1D2"/>
<path d="M105.333 265.297L97.9248 259.81L101.179 252.501L110.214 254.335L658.341 498.377L665.75 503.865L662.496 511.173L660.237 510.715L653.46 509.339L105.333 265.297Z" fill="#E1E1D2"/>
<path d="M99.6127 279.928L91.9272 274.836L94.7941 267.367L103.913 268.725L664.061 483.746L671.747 488.839L668.88 496.307L666.6 495.968L659.761 494.949L99.6127 279.928Z" fill="#E1E1D2"/>
<path d="M94.6664 294.839L86.725 290.155L89.1971 282.547L98.3746 283.426L669.009 468.836L676.95 473.519L674.478 481.128L672.183 480.908L665.3 480.249L94.6664 294.839Z" fill="#E1E1D2"/>
<path d="M90.5068 309.987L82.3311 305.726L84.4017 297.998L93.6126 298.396L673.168 453.687L681.344 457.949L679.273 465.676L676.971 465.577L670.062 465.279L90.5068 309.987Z" fill="#E1E1D2"/>
<path d="M87.1456 325.333L78.7581 321.505L80.4214 313.68L89.6406 313.595L676.529 438.342L684.917 442.169L683.253 449.994L680.949 450.016L674.034 450.08L87.1456 325.333Z" fill="#E1E1D2"/>
<path d="M84.5923 340.833L76.016 337.45L77.2675 329.548L86.4695 328.981L679.083 422.841L687.659 426.225L686.407 434.126L684.107 434.268L677.205 434.694L84.5923 340.833Z" fill="#E1E1D2"/>
<path d="M82.8535 356.446L74.1119 353.516L74.9481 345.56L84.1079 344.511L680.821 407.229L689.563 410.158L688.726 418.115L686.436 418.377L679.567 419.163L82.8535 356.446Z" fill="#E1E1D2"/>
<path d="M81.9344 372.128L73.0514 369.66L73.4701 361.671L82.5625 360.145L681.74 391.546L690.623 394.015L690.204 402.004L687.931 402.385L681.112 403.53L81.9344 372.128Z" fill="#E1E1D2"/>
<path d="M81.8374 387.837L72.8374 385.837V377.837L81.8374 375.837L681.837 375.837L690.837 377.837V385.837L688.587 386.337L681.837 387.837L81.8374 387.837Z" fill="#E1E1D2"/>
<path d="M82.5624 403.53L73.47 402.003L73.0513 394.014L81.9343 391.546L681.112 360.145L690.204 361.671L690.623 369.66L688.402 370.277L681.74 372.128L82.5624 403.53Z" fill="#E1E1D2"/>
<path d="M84.1079 419.163L74.9482 418.115L74.1119 410.158L82.8536 407.229L679.567 344.512L688.726 345.56L689.563 353.516L687.377 354.248L680.821 356.446L84.1079 419.163Z" fill="#E1E1D2"/>
<path d="M86.4693 434.694L77.2672 434.126L76.0157 426.225L84.5921 422.842L677.205 328.981L686.407 329.548L687.659 337.45L685.514 338.296L679.082 340.833L86.4693 434.694Z" fill="#E1E1D2"/>
<path d="M89.6402 450.08L80.4211 449.995L78.7578 442.169L87.1453 438.342L674.034 313.595L683.253 313.68L684.916 321.505L682.819 322.462L676.529 325.333L89.6402 450.08Z" fill="#E1E1D2"/>
<path d="M93.6123 465.279L84.4013 465.676L82.3308 457.949L90.5064 453.687L670.062 298.396L679.273 297.998L681.343 305.726L679.3 306.791L673.168 309.987L93.6123 465.279Z" fill="#E1E1D2"/>
<path d="M98.374 480.249L89.1964 481.128L86.7243 473.519L94.6658 468.836L665.3 283.426L674.477 282.547L676.949 290.155L674.964 291.326L669.008 294.838L98.374 480.249Z" fill="#E1E1D2"/>
<path d="M103.913 494.949L94.7945 496.307L91.9276 488.839L99.613 483.746L659.761 268.725L668.88 267.367L671.747 274.836L669.826 276.109L664.062 279.928L103.913 494.949Z" fill="#E1E1D2"/>
<path d="M110.214 509.339L101.179 511.173L97.9248 503.865L105.333 498.377L653.461 254.335L662.496 252.501L665.75 259.81L663.898 261.182L658.341 265.297L110.214 509.339Z" fill="#E1E1D2"/>
<path d="M117.259 523.38L108.332 525.684L104.7 518.556L111.811 512.688L646.415 240.294L655.342 237.99L658.974 245.118L657.197 246.585L651.863 250.986L117.259 523.38Z" fill="#E1E1D2"/>
<path d="M125.03 537.033L116.235 539.801L112.235 532.873L119.03 526.641L638.645 226.641L647.439 223.873L651.439 230.801L649.74 232.359L644.645 237.033L125.03 537.033Z" fill="#E1E1D2"/>
<path d="M133.504 550.261L124.866 553.485L120.509 546.776L126.968 540.197L630.17 213.413L638.808 210.189L643.165 216.898L641.55 218.543L636.706 223.477L133.504 550.261Z" fill="#E1E1D2"/>
<path d="M142.659 563.027L134.202 566.699L129.5 560.226L135.606 553.318L621.016 200.647L629.473 196.975L634.175 203.447L632.648 205.174L628.069 210.355L142.659 563.027Z" fill="#E1E1D2"/>
<path d="M152.469 575.296L144.216 579.406L139.182 573.189L144.918 565.97L611.205 188.378L619.458 184.269L624.493 190.486L623.059 192.29L618.757 197.704L152.469 575.296Z" fill="#E1E1D2"/>
<path d="M162.909 587.035L154.882 591.571L149.529 585.626L154.879 578.117L600.766 176.639L608.792 172.103L614.145 178.048L612.808 179.925L608.795 185.557L162.909 587.035Z" fill="#E1E1D2"/>
<path d="M173.947 598.212L166.169 603.161L160.512 597.505L165.462 589.726L589.726 165.462L597.504 160.513L603.161 166.169L601.924 168.114L598.212 173.948L173.947 598.212Z" fill="#E1E1D2"/>
<path d="M185.557 608.795L178.048 614.145L172.103 608.792L176.639 600.766L578.117 154.879L585.626 149.529L591.571 154.882L590.437 156.889L587.035 162.908L185.557 608.795Z" fill="#E1E1D2"/>
<path d="M197.704 618.757L190.486 624.492L184.269 619.458L188.378 611.205L565.97 144.917L573.189 139.182L579.406 144.216L578.378 146.279L575.296 152.469L197.704 618.757Z" fill="#E1E1D2"/>
<path d="M210.355 628.069L203.447 634.175L196.975 629.472L200.647 621.016L553.318 135.605L560.227 129.5L566.699 134.202L565.781 136.316L563.027 142.659L210.355 628.069Z" fill="#E1E1D2"/>
<path d="M223.477 636.706L216.898 643.165L210.188 638.808L213.413 630.17L540.196 126.968L546.775 120.509L553.485 124.866L552.679 127.026L550.26 133.504L223.477 636.706Z" fill="#E1E1D2"/>
<path d="M237.033 644.645L230.801 651.439L223.873 647.439L226.641 638.645L526.641 119.029L532.873 112.235L539.801 116.235L539.109 118.434L537.033 125.029L237.033 644.645Z" fill="#E1E1D2"/>
<path d="M250.986 651.863L245.118 658.974L237.99 655.342L240.294 646.415L512.688 111.811L518.556 104.7L525.684 108.332L525.108 110.564L523.38 117.259L250.986 651.863Z" fill="#E1E1D2"/>
<path d="M265.296 658.341L259.809 665.75L252.5 662.496L254.334 653.46L498.376 105.333L503.864 97.9245L511.172 101.178L510.714 103.437L509.338 110.214L265.296 658.341Z" fill="#E1E1D2"/>
<path d="M279.927 664.061L274.835 671.747L267.366 668.88L268.724 659.761L483.745 99.6127L488.838 91.9273L496.306 94.7942L495.967 97.0739L494.948 103.913L279.927 664.061Z" fill="#E1E1D2"/>
<path d="M294.838 669.008L290.155 676.949L282.546 674.477L283.425 665.3L468.835 94.6659L473.519 86.7244L481.127 89.1966L480.907 91.491L480.248 98.3741L294.838 669.008Z" fill="#E1E1D2"/>
<path d="M309.987 673.168L305.725 681.343L297.998 679.273L298.395 670.062L453.687 90.5063L457.948 82.3306L465.676 84.4012L465.576 86.7039L465.278 93.6121L309.987 673.168Z" fill="#E1E1D2"/>
<path d="M325.332 676.529L321.505 684.916L313.679 683.253L313.594 674.034L438.341 87.1452L442.169 78.7577L449.994 80.421L450.015 82.7258L450.079 89.6402L325.332 676.529Z" fill="#E1E1D2"/>
<path d="M340.833 679.082L337.449 687.658L329.548 686.407L328.98 677.205L422.841 84.5918L426.224 76.0155L434.126 77.267L434.268 79.5675L434.693 86.469L340.833 679.082Z" fill="#E1E1D2"/>
<path d="M356.446 680.821L353.516 689.562L345.56 688.726L344.511 679.566L407.228 82.8533L410.158 74.1117L418.114 74.9479L418.376 77.2379L419.163 84.1077L356.446 680.821Z" fill="#E1E1D2"/>
<path d="M372.128 681.74L369.66 690.623L361.671 690.204L360.145 681.112L391.546 81.9341L394.015 73.0511L402.004 73.4698L402.385 75.7429L403.53 82.5622L372.128 681.74Z" fill="#E1E1D2"/>
<path d="M387.838 681.837L385.838 690.837H377.838L375.838 681.837V81.8369L377.838 72.8369H385.838L386.338 75.0869L387.838 81.8369V681.837Z" fill="#E1E1D2"/>
<path d="M681.837 381.837C681.837 547.522 547.522 681.837 381.837 681.837C216.151 681.837 81.8369 547.522 81.8369 381.837C81.8369 216.151 216.151 81.8368 381.837 81.8368C547.522 81.8368 681.837 216.151 681.837 381.837ZM111.837 381.837C111.837 530.954 232.72 651.837 381.837 651.837C530.954 651.837 651.837 530.954 651.837 381.837C651.837 232.72 530.954 111.837 381.837 111.837C232.72 111.837 111.837 232.72 111.837 381.837Z" fill="#E1E1D2"/>
<circle cx="381.837" cy="381.837" r="270" fill="#FFFFF0"/>
<path d="M377.837 111.837H385.837L383.837 123.837H379.837L377.837 111.837Z" fill="#E1E1D2"/>
<path d="M385.837 651.837H377.837L379.837 639.837H383.837L385.837 651.837Z" fill="#E1E1D2"/>
<path d="M111.837 385.837V377.837L123.837 379.837V383.837L111.837 385.837Z" fill="#E1E1D2"/>
<path d="M651.837 377.837V385.837L639.837 383.837V379.837L651.837 377.837Z" fill="#E1E1D2"/>
<path d="M391.973 111.998L399.962 112.416L397.337 124.295L393.342 124.086L391.973 111.998Z" fill="#E1E1D2"/>
<path d="M371.701 651.676L363.712 651.257L366.337 639.379L370.332 639.588L371.701 651.676Z" fill="#E1E1D2"/>
<path d="M111.998 371.701L112.417 363.712L124.296 366.337L124.086 370.331L111.998 371.701Z" fill="#E1E1D2"/>
<path d="M651.676 391.973L651.258 399.962L639.379 397.337L639.588 393.342L651.676 391.973Z" fill="#E1E1D2"/>
<path d="M406.082 112.898L414.038 113.734L410.795 125.459L406.817 125.041L406.082 112.898Z" fill="#E1E1D2"/>
<path d="M357.593 650.776L349.637 649.94L352.88 638.215L356.858 638.633L357.593 650.776Z" fill="#E1E1D2"/>
<path d="M112.898 357.592L113.735 349.636L125.46 352.88L125.042 356.858L112.898 357.592Z" fill="#E1E1D2"/>
<path d="M650.776 406.082L649.94 414.038L638.215 410.794L638.633 406.816L650.776 406.082Z" fill="#E1E1D2"/>
<path d="M420.124 114.535L428.025 115.787L424.172 127.326L420.222 126.7L420.124 114.535Z" fill="#E1E1D2"/>
<path d="M343.55 649.138L335.649 647.887L339.501 636.348L343.452 636.973L343.55 649.138Z" fill="#E1E1D2"/>
<path d="M114.535 343.55L115.787 335.649L127.326 339.501L126.7 343.452L114.535 343.55Z" fill="#E1E1D2"/>
<path d="M649.139 420.123L647.887 428.025L636.348 424.172L636.974 420.222L649.139 420.123Z" fill="#E1E1D2"/>
<path d="M434.061 116.905L441.886 118.569L437.435 129.891L433.522 129.059L434.061 116.905Z" fill="#E1E1D2"/>
<path d="M329.614 646.768L321.789 645.105L326.24 633.783L330.152 634.615L329.614 646.768Z" fill="#E1E1D2"/>
<path d="M116.906 329.613L118.569 321.788L129.891 326.239L129.059 330.152L116.906 329.613Z" fill="#E1E1D2"/>
<path d="M646.769 434.06L645.105 441.886L633.783 437.434L634.615 433.522L646.769 434.06Z" fill="#E1E1D2"/>
<path d="M447.854 120.002L455.582 122.072L450.544 133.146L446.681 132.11L447.854 120.002Z" fill="#E1E1D2"/>
<path d="M315.82 643.672L308.092 641.602L313.13 630.528L316.994 631.563L315.82 643.672Z" fill="#E1E1D2"/>
<path d="M120.002 315.82L122.073 308.092L133.146 313.13L132.111 316.994L120.002 315.82Z" fill="#E1E1D2"/>
<path d="M643.672 447.854L641.602 455.582L630.528 450.544L631.564 446.681L643.672 447.854Z" fill="#E1E1D2"/>
<path d="M461.468 123.816L469.076 126.288L463.466 137.083L459.662 135.847L461.468 123.816Z" fill="#E1E1D2"/>
<path d="M302.207 639.859L294.599 637.386L300.209 626.592L304.013 627.828L302.207 639.859Z" fill="#E1E1D2"/>
<path d="M123.816 302.207L126.288 294.598L137.083 300.209L135.847 304.013L123.816 302.207Z" fill="#E1E1D2"/>
<path d="M639.859 461.468L637.387 469.076L626.592 463.466L627.828 459.661L639.859 461.468Z" fill="#E1E1D2"/>
<path d="M474.862 128.337L482.331 131.204L476.163 141.69L472.429 140.257L474.862 128.337Z" fill="#E1E1D2"/>
<path d="M288.812 635.337L281.343 632.47L287.511 621.984L291.245 623.418L288.812 635.337Z" fill="#E1E1D2"/>
<path d="M128.337 288.812L131.204 281.343L141.69 287.511L140.257 291.245L128.337 288.812Z" fill="#E1E1D2"/>
<path d="M635.337 474.862L632.47 482.331L621.984 476.163L623.418 472.429L635.337 474.862Z" fill="#E1E1D2"/>
<path d="M488.002 133.553L495.31 136.807L488.602 146.956L484.948 145.329L488.002 133.553Z" fill="#E1E1D2"/>
<path d="M275.673 630.121L268.364 626.867L275.072 616.718L278.727 618.345L275.673 630.121Z" fill="#E1E1D2"/>
<path d="M133.553 275.672L136.807 268.364L146.956 275.072L145.329 278.726L133.553 275.672Z" fill="#E1E1D2"/>
<path d="M630.122 488.002L626.868 495.31L616.719 488.602L618.346 484.948L630.122 488.002Z" fill="#E1E1D2"/>
<path d="M500.851 139.449L507.979 143.081L500.749 152.865L497.185 151.05L500.851 139.449Z" fill="#E1E1D2"/>
<path d="M262.824 624.225L255.696 620.593L262.926 610.809L266.49 612.625L262.824 624.225Z" fill="#E1E1D2"/>
<path d="M139.449 262.824L143.081 255.696L152.865 262.926L151.049 266.49L139.449 262.824Z" fill="#E1E1D2"/>
<path d="M624.225 500.851L620.593 507.979L610.809 500.749L612.625 497.185L624.225 500.851Z" fill="#E1E1D2"/>
<path d="M513.373 146.01L520.301 150.01L512.569 159.402L509.105 157.402L513.373 146.01Z" fill="#E1E1D2"/>
<path d="M250.301 617.664L243.373 613.664L251.105 604.272L254.569 606.272L250.301 617.664Z" fill="#E1E1D2"/>
<path d="M146.01 250.301L150.01 243.373L159.402 251.105L157.402 254.569L146.01 250.301Z" fill="#E1E1D2"/>
<path d="M617.664 513.373L613.664 520.301L604.271 512.569L606.271 509.105L617.664 513.373Z" fill="#E1E1D2"/>
<path d="M525.535 153.218L532.244 157.575L524.031 166.55L520.676 164.371L525.535 153.218Z" fill="#E1E1D2"/>
<path d="M238.139 610.457L231.429 606.1L239.642 597.125L242.997 599.304L238.139 610.457Z" fill="#E1E1D2"/>
<path d="M153.217 238.14L157.574 231.43L166.549 239.643L164.371 242.998L153.217 238.14Z" fill="#E1E1D2"/>
<path d="M610.457 525.535L606.099 532.245L597.125 524.032L599.303 520.677L610.457 525.535Z" fill="#E1E1D2"/>
<path d="M537.303 161.052L543.775 165.754L535.104 174.287L531.868 171.935L537.303 161.052Z" fill="#E1E1D2"/>
<path d="M226.371 602.623L219.899 597.921L228.57 589.388L231.806 591.739L226.371 602.623Z" fill="#E1E1D2"/>
<path d="M161.051 226.371L165.754 219.899L174.286 228.571L171.935 231.807L161.051 226.371Z" fill="#E1E1D2"/>
<path d="M602.623 537.303L597.92 543.775L589.388 535.104L591.739 531.868L602.623 537.303Z" fill="#E1E1D2"/>
<path d="M548.645 169.49L554.862 174.525L545.756 182.592L542.647 180.075L548.645 169.49Z" fill="#E1E1D2"/>
<path d="M215.029 594.184L208.812 589.149L217.918 581.082L221.026 583.6L215.029 594.184Z" fill="#E1E1D2"/>
<path d="M169.49 215.029L174.525 208.812L182.592 217.918L180.075 221.027L169.49 215.029Z" fill="#E1E1D2"/>
<path d="M594.184 548.645L589.149 554.862L581.082 545.756L583.599 542.648L594.184 548.645Z" fill="#E1E1D2"/>
<path d="M559.53 178.512L565.475 183.865L555.96 191.444L552.987 188.768L559.53 178.512Z" fill="#E1E1D2"/>
<path d="M204.145 585.163L198.199 579.81L207.715 572.231L210.688 574.907L204.145 585.163Z" fill="#E1E1D2"/>
<path d="M178.512 204.145L183.865 198.2L191.444 207.715L188.768 210.688L178.512 204.145Z" fill="#E1E1D2"/>
<path d="M585.163 559.53L579.81 565.475L572.231 555.959L574.907 552.987L585.163 559.53Z" fill="#E1E1D2"/>
<path d="M569.928 188.09L575.585 193.747L565.686 200.818L562.857 197.99L569.928 188.09Z" fill="#E1E1D2"/>
<path d="M193.748 575.585L188.091 569.928L197.99 562.857L200.819 565.685L193.748 575.585Z" fill="#E1E1D2"/>
<path d="M188.091 193.747L193.748 188.09L200.819 197.99L197.99 200.818L188.091 193.747Z" fill="#E1E1D2"/>
<path d="M575.585 569.928L569.928 575.585L562.857 565.685L565.685 562.857L575.585 569.928Z" fill="#E1E1D2"/>
<path d="M579.81 198.2L585.163 204.145L574.907 210.688L572.231 207.715L579.81 198.2Z" fill="#E1E1D2"/>
<path d="M183.865 565.475L178.512 559.53L188.768 552.987L191.444 555.959L183.865 565.475Z" fill="#E1E1D2"/>
<path d="M198.2 183.865L204.145 178.512L210.688 188.768L207.716 191.444L198.2 183.865Z" fill="#E1E1D2"/>
<path d="M565.475 579.81L559.53 585.163L552.987 574.907L555.959 572.231L565.475 579.81Z" fill="#E1E1D2"/>
<path d="M589.149 208.812L594.184 215.029L583.6 221.027L581.082 217.918L589.149 208.812Z" fill="#E1E1D2"/>
<path d="M174.525 554.862L169.49 548.645L180.075 542.648L182.592 545.756L174.525 554.862Z" fill="#E1E1D2"/>
<path d="M208.812 174.525L215.029 169.491L221.027 180.075L217.918 182.592L208.812 174.525Z" fill="#E1E1D2"/>
<path d="M554.862 589.15L548.645 594.184L542.648 583.6L545.756 581.082L554.862 589.15Z" fill="#E1E1D2"/>
<path d="M597.921 219.899L602.624 226.372L591.74 231.807L589.389 228.571L597.921 219.899Z" fill="#E1E1D2"/>
<path d="M165.754 543.776L161.052 537.303L171.936 531.868L174.287 535.104L165.754 543.776Z" fill="#E1E1D2"/>
<path d="M219.899 165.754L226.372 161.052L231.807 171.936L228.571 174.287L219.899 165.754Z" fill="#E1E1D2"/>
<path d="M543.776 597.921L537.304 602.623L531.868 591.74L535.104 589.388L543.776 597.921Z" fill="#E1E1D2"/>
<path d="M606.1 231.431L610.457 238.14L599.303 242.998L597.125 239.644L606.1 231.431Z" fill="#E1E1D2"/>
<path d="M157.575 532.245L153.218 525.536L164.371 520.677L166.549 524.032L157.575 532.245Z" fill="#E1E1D2"/>
<path d="M231.43 157.575L238.139 153.218L242.997 164.371L239.643 166.55L231.43 157.575Z" fill="#E1E1D2"/>
<path d="M532.244 606.1L525.535 610.457L520.676 599.304L524.031 597.125L532.244 606.1Z" fill="#E1E1D2"/>
<path d="M613.664 243.374L617.664 250.302L606.272 254.57L604.272 251.106L613.664 243.374Z" fill="#E1E1D2"/>
<path d="M150.01 520.302L146.01 513.374L157.403 509.106L159.403 512.57L150.01 520.302Z" fill="#E1E1D2"/>
<path d="M243.373 150.011L250.301 146.011L254.569 157.403L251.105 159.403L243.373 150.011Z" fill="#E1E1D2"/>
<path d="M520.301 613.665L513.373 617.665L509.105 606.272L512.569 604.272L520.301 613.665Z" fill="#E1E1D2"/>
<path d="M620.593 255.696L624.225 262.824L612.625 266.49L610.809 262.926L620.593 255.696Z" fill="#E1E1D2"/>
<path d="M143.082 507.979L139.45 500.851L151.05 497.185L152.866 500.749L143.082 507.979Z" fill="#E1E1D2"/>
<path d="M255.696 143.082L262.824 139.45L266.49 151.05L262.926 152.866L255.696 143.082Z" fill="#E1E1D2"/>
<path d="M507.979 620.594L500.851 624.226L497.185 612.626L500.749 610.81L507.979 620.594Z" fill="#E1E1D2"/>
<path d="M626.868 268.365L630.122 275.673L618.346 278.727L616.719 275.073L626.868 268.365Z" fill="#E1E1D2"/>
<path d="M136.807 495.311L133.553 488.003L145.329 484.949L146.956 488.603L136.807 495.311Z" fill="#E1E1D2"/>
<path d="M268.364 136.808L275.673 133.554L278.726 145.33L275.072 146.957L268.364 136.808Z" fill="#E1E1D2"/>
<path d="M495.311 626.868L488.002 630.122L484.948 618.346L488.603 616.719L495.311 626.868Z" fill="#E1E1D2"/>
<path d="M632.47 281.344L635.337 288.813L623.417 291.246L621.984 287.512L632.47 281.344Z" fill="#E1E1D2"/>
<path d="M131.204 482.332L128.337 474.863L140.257 472.43L141.69 476.164L131.204 482.332Z" fill="#E1E1D2"/>
<path d="M281.343 131.205L288.812 128.338L291.245 140.258L287.511 141.691L281.343 131.205Z" fill="#E1E1D2"/>
<path d="M482.331 632.471L474.862 635.338L472.429 623.419L476.163 621.985L482.331 632.471Z" fill="#E1E1D2"/>
<path d="M637.387 294.599L639.859 302.208L627.829 304.014L626.593 300.21L637.387 294.599Z" fill="#E1E1D2"/>
<path d="M126.289 469.077L123.816 461.468L135.847 459.662L137.083 463.467L126.289 469.077Z" fill="#E1E1D2"/>
<path d="M294.599 126.289L302.208 123.817L304.014 135.848L300.209 137.084L294.599 126.289Z" fill="#E1E1D2"/>
<path d="M469.077 637.387L461.468 639.859L459.662 627.829L463.466 626.593L469.077 637.387Z" fill="#E1E1D2"/>
<path d="M641.603 308.093L643.673 315.821L631.564 316.995L630.529 313.131L641.603 308.093Z" fill="#E1E1D2"/>
<path d="M122.073 455.583L120.003 447.856L132.111 446.682L133.147 450.545L122.073 455.583Z" fill="#E1E1D2"/>
<path d="M308.093 122.073L315.821 120.003L316.995 132.112L313.131 133.147L308.093 122.073Z" fill="#E1E1D2"/>
<path d="M455.583 641.603L447.856 643.673L446.682 631.565L450.545 630.529L455.583 641.603Z" fill="#E1E1D2"/>
<path d="M645.106 321.79L646.77 329.615L634.616 330.153L633.784 326.241L645.106 321.79Z" fill="#E1E1D2"/>
<path d="M118.57 441.887L116.907 434.062L129.06 433.523L129.892 437.436L118.57 441.887Z" fill="#E1E1D2"/>
<path d="M321.79 118.57L329.615 116.907L330.153 129.06L326.241 129.892L321.79 118.57Z" fill="#E1E1D2"/>
<path d="M441.887 645.107L434.062 646.77L433.523 634.616L437.435 633.785L441.887 645.107Z" fill="#E1E1D2"/>
<path d="M647.888 335.651L649.139 343.552L636.974 343.454L636.348 339.503L647.888 335.651Z" fill="#E1E1D2"/>
<path d="M115.788 428.027L114.536 420.125L126.701 420.223L127.327 424.174L115.788 428.027Z" fill="#E1E1D2"/>
<path d="M335.65 115.788L343.551 114.537L343.453 126.702L339.502 127.328L335.65 115.788Z" fill="#E1E1D2"/>
<path d="M428.026 647.889L420.124 649.14L420.223 636.975L424.173 636.349L428.026 647.889Z" fill="#E1E1D2"/>
<path d="M649.94 349.638L650.777 357.594L638.633 356.859L638.215 352.881L649.94 349.638Z" fill="#E1E1D2"/>
<path d="M113.735 414.039L112.899 406.083L125.042 406.818L125.46 410.796L113.735 414.039Z" fill="#E1E1D2"/>
<path d="M349.637 113.736L357.593 112.899L356.858 125.043L352.88 125.461L349.637 113.736Z" fill="#E1E1D2"/>
<path d="M414.038 649.941L406.082 650.778L406.817 638.634L410.795 638.216L414.038 649.941Z" fill="#E1E1D2"/>
<path d="M651.258 363.713L651.677 371.702L639.589 370.333L639.379 366.338L651.258 363.713Z" fill="#E1E1D2"/>
<path d="M112.417 399.964L111.998 391.974L124.087 393.344L124.296 397.338L112.417 399.964Z" fill="#E1E1D2"/>
<path d="M363.712 112.418L371.701 111.999L370.332 124.087L366.338 124.297L363.712 112.418Z" fill="#E1E1D2"/>
<path d="M399.963 651.259L391.974 651.678L393.343 639.589L397.338 639.38L399.963 651.259Z" fill="#E1E1D2"/>
</svg>
