<svg width="252" height="217" viewBox="0 0 252 217" fill="none" xmlns="http://www.w3.org/2000/svg">
<path d="M123.6 48.9816L124.6 45.9816H126.6L127.6 48.9816L127.6 173.05L126.6 175.982H124.6L123.974 174.147L123.6 173.05L123.6 48.9816Z" fill="#E1E1D2"/>
<path d="M117.13 49.5303L117.812 46.4422L119.801 46.2331L121.109 49.1122L134.077 172.501L133.39 175.521L131.401 175.73L130.587 173.971L130.1 172.919L117.13 49.5303Z" fill="#E1E1D2"/>
<path d="M110.753 50.7523L111.108 47.6099L113.064 47.194L114.666 49.9207L140.461 171.278L140.093 174.353L138.137 174.769L137.143 173.105L136.549 172.109L110.753 50.7523Z" fill="#E1E1D2"/>
<path d="M104.539 52.6341L104.563 49.4717L106.465 48.8537L108.343 51.398L146.682 169.394L146.638 172.491L144.736 173.109L143.574 171.558L142.879 170.63L104.539 52.6341Z" fill="#E1E1D2"/>
<path d="M98.5552 55.1552L98.249 52.0076L100.076 51.1941L102.209 53.5282L152.673 166.87L152.952 169.955L151.125 170.769L149.807 169.347L149.019 168.497L98.5552 55.1552Z" fill="#E1E1D2"/>
<path d="M92.8677 58.288L92.2341 55.1897L93.9662 54.1897L96.3318 56.288L158.366 163.734L158.966 166.773L157.234 167.773L155.775 166.497L154.902 165.734L92.8677 58.288Z" fill="#E1E1D2"/>
<path d="M87.5387 61.9981L86.5848 58.983L88.2028 57.8074L90.7749 59.6469L163.7 160.02L164.615 162.98L162.997 164.155L161.413 163.039L160.465 162.371L87.5387 61.9981Z" fill="#E1E1D2"/>
<path d="M82.6275 66.2448L81.3636 63.3459L82.8499 62.0077L85.6001 63.5683L168.618 155.769L169.837 158.616L168.351 159.955L166.658 159.01L165.646 158.445L82.6275 66.2448Z" fill="#E1E1D2"/>
<path d="M78.1865 70.9818L76.6265 68.2309L77.9647 66.7446L80.863 68.0091L173.064 151.027L174.574 153.732L173.235 155.218L171.454 154.456L170.388 153.999L78.1865 70.9818Z" fill="#E1E1D2"/>
<path d="M74.2649 76.1569L72.426 73.5841L73.6015 71.9661L76.6161 72.9208L176.99 145.846L178.774 148.378L177.598 149.996L175.747 149.424L174.639 149.082L74.2649 76.1569Z" fill="#E1E1D2"/>
<path d="M70.9057 81.7136L68.8079 79.3472L69.8079 77.6151L72.9057 78.2495L180.352 140.284L182.391 142.615L181.391 144.347L179.49 143.972L178.352 143.747L70.9057 81.7136Z" fill="#E1E1D2"/>
<path d="M68.1469 87.5911L65.8132 85.4569L66.6267 83.6298L69.7739 83.9368L183.116 134.4L185.388 136.506L184.574 138.333L182.644 138.158L181.489 138.054L68.1469 87.5911Z" fill="#E1E1D2"/>
<path d="M66.0163 93.7245L63.4723 91.846L64.0903 89.9439L67.2523 89.9203L185.248 128.259L187.728 130.116L187.11 132.018L185.172 132.046L184.012 132.063L66.0163 93.7245Z" fill="#E1E1D2"/>
<path d="M64.538 100.047L61.8115 98.4448L62.2274 96.4885L65.3696 96.1345L186.727 121.93L189.387 123.517L188.971 125.473L187.047 125.704L185.895 125.842L64.538 100.047Z" fill="#E1E1D2"/>
<path d="M63.7297 106.49L60.8507 105.181L61.0597 103.192L64.1478 102.512L187.536 115.48L190.348 116.781L190.139 118.77L188.249 119.2L187.118 119.458L63.7297 106.49Z" fill="#E1E1D2"/>
<path d="M63.5996 112.981L60.5996 111.981V109.981L63.5996 108.981L187.668 108.981L190.6 109.981V111.981L188.765 112.607L187.668 112.981L63.5996 112.981Z" fill="#E1E1D2"/>
<path d="M64.1476 119.451L61.0595 118.77L60.8504 116.781L63.7295 115.473L187.118 102.504L190.138 103.192L190.347 105.181L188.589 105.995L187.536 106.482L64.1476 119.451Z" fill="#E1E1D2"/>
<path d="M65.37 125.828L62.2275 125.473L61.8117 123.517L64.5383 121.916L185.895 96.1204L188.971 96.4886L189.387 98.4449L187.723 99.4383L186.727 100.033L65.37 125.828Z" fill="#E1E1D2"/>
<path d="M67.2516 132.043L64.0893 132.018L63.4712 130.116L66.0155 128.238L184.012 89.8992L187.109 89.9439L187.727 91.846L186.176 93.0079L185.247 93.703L67.2516 132.043Z" fill="#E1E1D2"/>
<path d="M69.7729 138.026L66.6253 138.332L65.8118 136.505L68.1459 134.372L181.488 83.9089L184.573 83.6296L185.386 85.4567L183.965 86.7743L183.115 87.5627L69.7729 138.026Z" fill="#E1E1D2"/>
<path d="M72.9057 143.714L69.8074 144.347L68.8074 142.615L70.9057 140.249L178.352 78.2152L181.391 77.615L182.391 79.3471L181.115 80.806L180.352 81.6789L72.9057 143.714Z" fill="#E1E1D2"/>
<path d="M76.616 149.042L73.6009 149.996L72.4253 148.378L74.2648 145.806L174.638 72.8805L177.598 71.966L178.773 73.584L177.657 75.1683L176.989 76.1162L76.616 149.042Z" fill="#E1E1D2"/>
<path d="M80.8627 153.954L77.9638 155.218L76.6256 153.732L78.1862 150.981L170.387 67.9634L173.234 66.7445L174.573 68.2308L173.628 69.9231L173.063 70.9356L80.8627 153.954Z" fill="#E1E1D2"/>
<path d="M85.5997 158.395L82.8488 159.955L81.3625 158.617L82.6271 155.718L165.645 63.5175L168.349 62.0077L169.836 63.346L169.073 65.1277L168.617 66.1938L85.5997 158.395Z" fill="#E1E1D2"/>
<path d="M90.7751 162.316L88.2023 164.155L86.5843 162.98L87.539 159.965L160.465 59.5915L162.996 57.8073L164.614 58.9829L164.042 60.8345L163.7 61.9424L90.7751 162.316Z" fill="#E1E1D2"/>
<path d="M96.3315 165.675L93.9651 167.773L92.233 166.773L92.8674 163.675L154.902 56.2287L157.233 54.1896L158.965 55.1896L158.59 57.0909L158.365 58.2285L96.3315 165.675Z" fill="#E1E1D2"/>
<path d="M102.209 168.435L100.075 170.769L98.2477 169.955L98.5547 166.808L149.018 53.4659L151.123 51.1942L152.951 52.0077L152.776 53.9378L152.672 55.0926L102.209 168.435Z" fill="#E1E1D2"/>
<path d="M108.343 170.565L106.464 173.109L104.562 172.491L104.538 169.329L142.878 51.3329L144.734 48.8537L146.636 49.4717L146.665 51.4095L146.681 52.5689L108.343 170.565Z" fill="#E1E1D2"/>
<path d="M114.665 172.042L113.063 174.769L111.107 174.353L110.753 171.211L136.548 49.8537L138.135 47.1939L140.091 47.6097L140.322 49.5339L140.46 50.6852L114.665 172.042Z" fill="#E1E1D2"/>
<path d="M121.108 172.851L119.799 175.73L117.81 175.521L117.129 172.433L130.098 49.0441L131.399 46.233L133.388 46.4421L133.818 48.3316L134.076 49.4622L121.108 172.851Z" fill="#E1E1D2"/>
<circle cx="125.6" cy="110.979" r="62" fill="#E1E1D2"/>
<path d="M169.152 70C164.764 77.6002 158.453 83.9116 150.853 88.2999C143.253 92.6883 134.632 94.9991 125.856 95C117.08 95.0009 108.458 92.692 100.857 88.3053C93.2566 83.9185 86.9442 77.6084 82.5546 70.0092L118.09 49.483C118.876 50.8452 120.008 51.9763 121.37 52.7626C122.733 53.549 124.278 53.9628 125.852 53.9627C127.425 53.9625 128.97 53.5483 130.332 52.7617C131.695 51.975 132.826 50.8437 133.612 49.4813L169.152 70Z" fill="#FFFFF0"/>
<path d="M139.647 168.535C135.259 160.935 132.949 152.313 132.948 143.538C132.948 134.762 135.257 126.14 139.644 118.54C144.031 110.939 150.342 104.627 157.941 100.238C165.541 95.8484 174.162 93.5368 182.938 93.5349L182.946 134.572C181.373 134.573 179.828 134.987 178.466 135.774C177.103 136.561 175.972 137.692 175.186 139.054C174.399 140.417 173.985 141.962 173.986 143.535C173.986 145.109 174.4 146.654 175.186 148.016L139.647 168.535Z" fill="#FFFFF0"/>
<path d="M68.3013 93.5986C77.0772 93.5986 85.6986 95.9085 93.299 100.296C100.899 104.684 107.211 110.994 111.6 118.594C115.989 126.194 118.3 134.815 118.301 143.591C118.303 152.367 115.994 160.988 111.608 168.589L76.0641 148.078C76.8504 146.716 77.2642 145.17 77.2639 143.597C77.2637 142.024 76.8494 140.479 76.0627 139.116C75.276 137.754 74.1446 136.623 72.7822 135.836C71.4198 135.05 69.8744 134.636 68.3013 134.636L68.3013 93.5986Z" fill="#FFFFF0"/>
<path d="M187.851 111C187.851 145.242 160.092 173 125.851 173C91.6089 173 63.8506 145.242 63.8506 111C63.8506 76.7583 91.6089 49 125.851 49C160.092 49 187.851 76.7583 187.851 111ZM77.9258 111C77.9258 137.468 99.3824 158.925 125.851 158.925C152.319 158.925 173.775 137.468 173.775 111C173.775 84.5319 152.319 63.0752 125.851 63.0752C99.3824 63.0752 77.9258 84.5319 77.9258 111Z" fill="#E1E1D2"/>
<circle cx="126" cy="111" r="12" fill="#FFFFF0"/>
</svg>
