<svg width="512" height="512" viewBox="0 0 512 512" fill="none" xmlns="http://www.w3.org/2000/svg">
<rect width="512" height="512" rx="16" fill="#FAFBF4"/>
<path d="M269.11 75.1581C268.123 75.4016 266.711 75.9798 265.314 76.6798C264.767 76.9538 263.826 77.3342 263.219 77.5168C262.626 77.6994 262.004 78.0038 261.837 78.1712C261.67 78.3538 261.321 78.7646 261.062 79.069C260.683 79.5255 260.47 79.6473 260.06 79.6473C259.407 79.6473 258.633 78.9777 258.132 77.9885C257.175 76.0559 256.553 75.5385 255.156 75.5385C253.364 75.5385 251.724 76.4972 249.37 78.9016C247.837 80.469 247.123 81.0168 246.637 81.0168C246.561 81.0168 246.151 80.6973 245.695 80.3168C244.633 79.4038 243.904 79.0386 243.129 79.0386C241.413 79.0386 239.652 80.8038 237.389 84.7603C237.055 85.3538 236.524 86.069 236.205 86.343L235.643 86.8451L234.277 86.7082C232.136 86.4951 229.691 86.5712 228.567 86.8604C226.715 87.3625 220.777 89.3865 220.231 89.7212C219.259 90.2995 218.834 90.8017 218.242 92.0495C217.179 94.3169 216.465 94.7126 213.079 94.8648C210.027 95.0017 209.404 95.2604 208.645 96.7365C208.387 97.2539 208.311 97.7561 208.22 99.3539C208.174 100.434 208.053 101.484 207.946 101.667C207.688 102.139 206.883 102.321 205.836 102.169C201.903 101.576 200.961 101.606 199.944 102.382C199.018 103.097 198.881 103.6 198.866 106.582C198.866 108.043 198.805 109.519 198.744 109.854C198.35 111.939 196.679 113.126 194.159 113.126C192.382 113.126 190.575 113.811 187.189 115.789C185.488 116.778 184.395 117.341 182.542 118.193C181.738 118.574 180.796 119.121 180.447 119.441C179.642 120.171 178.989 121.556 178.701 123.139C178.397 124.737 178.139 125.224 177.486 125.452C176.803 125.68 176.271 126.213 175.618 127.4C175.011 128.495 174.738 128.724 173.69 128.952C173.28 129.043 172.809 129.195 172.642 129.287C172.369 129.424 172.46 129.485 173.386 129.774C175.755 130.535 177.213 131.63 179.369 134.278C180.158 135.237 180.842 135.906 181.404 136.256C183.287 137.428 184.122 138.143 185.291 139.559C185.974 140.38 186.733 141.172 186.976 141.339C187.235 141.491 188.146 141.75 189.011 141.902C191.076 142.283 192.078 142.663 192.944 143.439C193.901 144.261 194.174 144.869 194.705 147.228C195.161 149.283 195.662 150.561 196.315 151.428C196.877 152.159 196.512 152.037 195.556 151.154C194.645 150.317 194.113 149.374 193.718 147.837C192.853 144.443 191.805 143.591 188.252 143.333C187.508 143.272 186.688 143.119 186.445 142.998C186.202 142.861 185.215 142.009 184.243 141.08C182.33 139.239 181.237 138.463 179.885 137.961C178.822 137.565 178.139 136.972 176.666 135.1C174.905 132.893 173.28 131.889 171.169 131.737C170.349 131.676 169.939 131.737 168.74 132.148C166.766 132.802 165.338 132.878 163.319 132.467C160.525 131.889 159.811 132.087 159.097 133.624C158.87 134.111 158.581 134.628 158.444 134.765C158.095 135.176 157.245 135.1 155.833 134.506C153.099 133.38 151.475 133.959 149.121 136.88C147.906 138.402 147.253 138.843 146.236 138.843C145.78 138.843 145.143 139.056 144.14 139.528C142.835 140.152 142.592 140.213 141.559 140.213C139.934 140.213 139.494 140.609 139.114 142.343C138.932 143.211 138.34 144.017 137.884 144.017C137.717 144.017 137.064 143.789 136.427 143.5C135.774 143.226 134.954 142.952 134.574 142.891C133.223 142.678 133.056 142.617 132.342 142.039C131.947 141.704 131.431 141.4 131.188 141.339C129.411 140.959 126.967 142.739 126.724 144.611C126.541 145.92 127.377 146.665 129.836 147.365C132.494 148.126 133.207 150.18 131.4 151.809C130.474 152.646 129.518 152.965 127.559 153.102C125.888 153.209 125.843 153.224 124.962 154.593C124.537 155.248 124.4 155.354 123.945 155.37C123.656 155.37 122.958 155.507 122.381 155.659C121.515 155.887 121.181 155.902 120.209 155.765C118.691 155.552 118.235 155.704 117.294 156.709C116.489 157.561 114.682 160.194 114.682 160.513C114.682 160.817 113.361 163.45 112.663 164.531C111.539 166.281 109.595 168.578 106.817 171.454C103.749 174.62 102.793 175.822 101.881 177.633C101.274 178.865 101.244 178.972 101.244 180.326C101.244 181.102 101.183 181.802 101.092 181.878C101.016 181.97 100.53 182.137 100.029 182.289C98.1309 182.822 97.1439 183.72 95.9139 186.048C95.428 186.992 94.8662 187.768 94.2588 188.392C93.4388 189.229 93.2414 189.35 92.4366 189.518C90.5082 189.913 89.5515 190.263 88.8986 190.811C87.5927 191.937 87.2131 193.063 86.8335 196.822C86.6968 198.116 86.4842 199.561 86.3628 200.018C86.2261 200.474 86.0894 201.479 86.0287 202.224C85.9224 203.868 86.0439 204.187 87.5775 206.196C88.5645 207.474 88.7619 207.946 89.1871 209.955C89.6275 211.994 90.4626 212.161 93.4692 210.807C94.851 210.183 95.4128 210.077 95.671 210.396C95.7469 210.503 95.9291 210.99 96.0658 211.461C96.2024 211.948 96.5213 212.587 96.7794 212.877C97.3868 213.561 97.9487 213.577 99.2545 212.922L100.242 212.435L100.788 212.998C101.745 213.987 102.656 213.744 104.721 211.933C106.832 210.092 107.242 209.787 107.925 209.529C108.563 209.27 108.623 209.27 109.094 209.559C109.413 209.742 109.747 210.153 110.005 210.67C110.522 211.705 110.871 211.872 112.556 211.887C113.483 211.887 114.029 211.979 114.485 212.192C115.062 212.45 115.198 212.618 115.958 214.124C116.413 215.037 116.884 215.874 117.005 215.981C117.324 216.24 117.476 215.92 117.719 214.414C117.81 213.759 117.992 212.937 118.114 212.603C118.569 211.324 119.617 210.366 120.574 210.366C121.287 210.366 121.865 210.061 123.186 208.981C124.4 207.992 125.615 207.322 126.192 207.322C126.663 207.322 127.088 207.55 127.862 208.266C129.381 209.65 130.186 209.483 133.511 207.033C135.622 205.481 137.08 204.705 138.431 204.431C139.57 204.203 140.481 204.324 142.06 204.918C144.171 205.709 144.869 205.587 147.405 204.05C148.134 203.609 148.726 203.579 150.078 203.929C151.065 204.172 151.11 204.172 151.961 203.853C152.644 203.594 153.145 203.518 154.375 203.518C155.863 203.518 157.564 203.213 157.883 202.894C158.11 202.666 159.204 202.742 159.857 203.046C160.191 203.198 161.011 203.776 161.679 204.34C162.347 204.887 163.197 205.496 163.577 205.679C164.488 206.12 165.824 206.196 167.054 205.876C167.904 205.663 168.056 205.648 168.254 205.846C168.375 205.983 168.618 206.957 168.831 208.19C169.727 213.577 170.896 215.905 175.208 220.866C178.594 224.761 179.84 227.227 180.69 231.716C181.115 233.922 181.07 238.944 180.614 241.227C180.295 242.794 179.414 245.807 179.096 246.355C179.035 246.492 179.004 245.32 179.035 243.768C179.111 240.785 178.959 239.02 178.427 236.54C178.124 235.064 177.137 231.822 177 231.822C176.954 231.822 176.119 232.629 175.132 233.603C173.022 235.733 171.23 237.164 167.145 239.979C160.692 244.422 158.535 246.309 155.65 250.083C154.223 251.955 153.206 253.553 151.201 257.159C148.104 262.699 147.268 263.916 144.505 266.838C143.563 267.842 142.409 269.242 141.939 269.942C137.808 276.151 140.496 281.721 150.29 287.305C151.292 287.868 153.889 289.177 156.06 290.212C161.739 292.921 164.123 294.366 167.889 297.395C171.291 300.119 172.262 300.605 174.206 300.605C176.469 300.605 178.746 299.753 185.898 296.268C191.699 293.438 194.432 292.312 197.894 291.323C202.191 290.105 206.17 289.451 210.756 289.192C213.458 289.055 214.202 289.086 212.821 289.268C208.341 289.908 203.649 291.414 199.564 293.545C197.803 294.473 193.885 296.953 194.022 297.075C194.037 297.105 195.024 297.364 196.193 297.638C201.751 298.992 208.523 301.701 213.701 304.638C215.767 305.825 219.107 308.077 220.823 309.447C230.253 317.01 234.003 325.638 231.665 334.404C231.467 335.18 230.754 337.112 230.101 338.71C228.795 341.891 228.233 343.534 227.96 345.041C227.444 347.856 227.519 351.295 228.188 354.445C228.385 355.419 228.537 356.225 228.506 356.256C228.4 356.362 227.049 353.228 226.608 351.873C225.758 349.18 225.515 347.643 225.424 344.462L225.333 341.525L224.938 341.617C224.179 341.799 222.417 342.712 221.628 343.351C220.626 344.143 219.472 345.771 218.849 347.262C216.875 352.01 217.164 360.075 219.639 369.952C219.912 371.047 220.094 371.915 220.049 371.884C219.988 371.854 219.639 371.291 219.259 370.636C216.996 366.695 215.129 361.856 214.202 357.549C214.066 356.865 213.884 356.302 213.838 356.302C213.504 356.302 209.829 357.519 208.068 358.204C205.122 359.345 202.617 360.486 196.755 363.332C189.33 366.939 186.263 368.263 182.406 369.51C179.43 370.469 178.382 370.728 176.18 371.047C174.115 371.352 172.794 371.686 172.065 372.067C171.852 372.173 171.169 372.691 170.547 373.208C166.523 376.586 159.978 379.6 157.958 378.991C156.941 378.687 156.804 378.321 157.017 376.389C157.321 373.665 156.911 372.554 155.301 371.747C154.451 371.321 154.284 371.291 152.796 371.306C150.503 371.336 147.496 372.067 144.414 373.36C142.455 374.197 141.999 374.273 138.218 374.395C134.301 374.547 133.299 374.715 131.795 375.521C130.687 376.1 129.776 377.104 129.032 378.55C128.045 380.482 127.422 380.923 125.114 381.426C123.155 381.837 122.092 382.415 120.559 383.845C119.162 385.139 118.418 385.58 116.292 386.371C113.71 387.33 113.543 387.726 113.558 392.747C113.604 404.298 116.975 412.043 124.036 416.806C128.288 419.667 134.24 421.676 141.817 422.817C143.017 423 143.062 423.015 143.381 423.593C144.08 424.826 146.069 427.352 147.466 428.752C152.796 434.093 159.841 437 167.449 437C175.223 437 182.224 434.048 187.69 428.463L189.406 426.713L194.068 426.896C229.25 428.219 272.739 428.235 307.163 426.896L311.43 426.728L313.009 428.356C318.506 434.048 325.445 436.985 333.341 436.985C338.99 436.985 344.077 435.493 348.739 432.48C351.502 430.685 354.448 427.854 356.331 425.191C356.893 424.385 357.424 423.715 357.485 423.715C358.685 423.715 369.025 422.422 372.29 421.874C389.1 419.013 394.536 412.591 395.766 394.178C395.857 392.778 395.902 390.663 395.872 389.461C395.826 387.406 395.796 387.208 395.386 386.387C395.113 385.808 394.733 385.337 394.353 385.063C393.108 384.15 391.939 383.906 386.716 383.389C383.39 383.069 380.748 382.202 374.112 379.28C366.839 376.1 363.771 375.019 360.066 374.395C358.548 374.136 355.101 374.136 353.689 374.395C351.29 374.836 349.103 375.734 346.856 377.241L345.565 378.093L344.123 378.017C342.3 377.91 340.448 377.439 333.417 375.323C322.651 372.082 317.701 371.002 311.931 370.606C309.319 370.423 308.18 370.484 304.43 370.941C302.319 371.199 301.317 371.245 298.887 371.169C294.605 371.063 292.479 370.621 285.92 368.491C277.72 365.828 274.713 365.63 268.731 367.289C266.62 367.882 266.316 367.928 264.555 367.928C262.414 367.928 261.123 367.639 259.149 366.726C256.659 365.584 253.88 363.149 251.997 360.502C250.782 358.782 249.355 355.982 248.687 353.973C248.019 351.995 248.019 351.706 248.672 352.893C250.646 356.575 253.637 359.832 257.236 362.252C259.043 363.469 261.579 364.747 261.837 364.58C262.065 364.443 262.915 362.602 263.34 361.339C266.013 353.349 263.978 341.175 257.707 327.677C256.856 325.821 255.307 322.853 254.457 321.393C254.229 321.012 254.093 320.693 254.138 320.693C254.26 320.693 256.887 324.36 258.147 326.308C261.715 331.817 265.177 338.999 267.06 344.843C267.394 345.878 267.728 346.715 267.804 346.715C267.88 346.715 268.457 346.365 269.095 345.938C274.121 342.53 277.401 337.706 278.51 332.136C278.844 330.447 278.92 329.625 279.132 325.76C279.345 321.621 279.679 320.327 281.471 316.751C282.564 314.59 282.928 313.464 282.928 312.308C282.928 311.09 282.655 310.543 281.531 309.569C280.453 308.625 280.195 308.108 280.195 306.845C280.195 306.053 280.058 305.551 279.223 303.527C277.887 300.255 277.614 299.282 277.462 297.288C277.28 295.234 277.052 294.61 276.369 294.275C275.594 293.91 274.759 294.184 273.985 295.082C273.058 296.132 272.998 296.527 273.21 300.195C273.499 304.836 273.24 310.436 272.572 314.149C272.36 315.336 272.36 315.321 272.147 312.247C271.616 304.456 269.976 296.892 267.258 289.847C266.787 288.614 266.59 288.264 266.331 288.218C263.765 287.701 261.958 287.123 258.633 285.768C255.839 284.627 255.429 284.536 250.433 283.638C242.886 282.299 240.183 281.401 238.635 279.712C237.481 278.449 237.389 277.049 238.361 275.238C238.908 274.203 239.804 272.986 239.576 273.594C238.756 275.74 238.695 276.562 239.288 277.749C240.259 279.712 243.342 280.747 249.978 281.355C255.049 281.812 255.839 281.918 258.329 282.497C262.125 283.394 264.524 283.714 271.692 284.323C281.137 285.114 284.234 285.738 286.223 287.199C287.119 287.853 287.347 288.386 287.499 290.212C287.879 294.975 290.141 298.399 292.631 297.942C293.558 297.775 294.347 297.273 295.699 295.964C297.187 294.534 297.688 294.305 299.115 294.397C299.996 294.458 300.406 294.625 303.321 296.071C306.814 297.836 308.302 298.369 310.413 298.658C312.478 298.932 313.859 298.688 316.532 297.608C318.369 296.877 318.84 296.74 319.675 296.74C320.723 296.725 320.556 296.649 322.864 298.11C323.471 298.49 323.851 298.627 324.352 298.627C325.4 298.627 325.825 298.292 326.888 296.664C328.498 294.153 328.938 294.077 330.912 295.964C332.704 297.668 334.177 298.262 336.378 298.14C339.127 297.973 341.101 296.329 341.981 293.438C342.786 290.76 343.394 289.725 344.457 289.162C345.034 288.873 345.413 288.812 347.615 288.736C349.938 288.66 350.181 288.629 350.88 288.264C351.305 288.036 352.11 287.61 352.687 287.305C353.993 286.621 354.813 286.575 356.164 287.168C357.561 287.777 358.594 287.731 360.142 287.031C362.268 286.058 362.921 286.103 366.262 287.503C369.724 288.964 371.151 289.071 373.687 288.066C374.765 287.655 375.312 287.518 376.01 287.518C377.438 287.518 377.605 287.381 378.592 285.51C379.685 283.425 380.551 283.075 381.872 284.171C382.282 284.505 382.661 284.779 382.707 284.779C382.767 284.779 382.904 284.292 382.995 283.714C383.208 282.466 383.542 281.949 384.028 282.101C384.392 282.223 385.167 283.242 385.804 284.444C386.351 285.449 387.141 286.392 387.718 286.681C388.674 287.184 389.373 286.91 391.18 285.373C391.878 284.794 392.638 284.216 392.896 284.079C393.533 283.744 394.429 283.775 395.097 284.155C396.874 285.144 398.134 285.708 398.56 285.662C399 285.616 399.015 285.601 398.985 284.855C398.985 284.429 398.727 283.318 398.423 282.375C397.284 278.784 397.345 278.205 399.03 276.638L400.199 275.527L400.078 274.644C399.896 273.412 399.926 272.757 400.23 271.525C400.397 270.87 400.473 270.079 400.427 269.44C400.336 267.614 399.562 267.005 396.813 266.594C394.839 266.29 393.913 266.001 393.503 265.56C393.336 265.377 393.017 264.753 392.805 264.19C391.954 261.938 390.451 259.64 388.963 258.377C387.186 256.855 385.516 256.231 382.722 256.018C380.429 255.836 379.791 255.683 379.138 255.09C378.425 254.466 378.015 253.507 377.59 251.453C376.952 248.425 375.965 246.872 374.097 245.959C373.171 245.503 373.019 245.472 370.468 245.351C367.568 245.214 366.247 244.97 365.062 244.362C364.045 243.844 362.952 242.809 362.466 241.912C361.873 240.816 361.767 240.283 362.299 241.105C362.86 241.972 363.726 242.733 364.607 243.144C365.26 243.433 365.563 243.464 368.874 243.464C371.895 243.464 372.579 243.509 373.353 243.738C376.845 244.818 379.381 247.694 379.898 251.149C380.171 253.005 380.778 253.34 384.362 253.599C385.561 253.675 387.171 253.888 387.93 254.055C390.102 254.557 391.62 254.268 393.169 253.096C395.614 251.24 396.555 251.331 398.058 253.538C399.304 255.364 400.078 256.064 401.308 256.475C403.434 257.175 403.95 257.601 404.345 259.046C404.74 260.477 405.18 261.481 405.62 261.953C405.985 262.333 406.167 262.41 406.79 262.41C407.412 262.41 407.761 262.273 408.961 261.573C410.89 260.431 411.861 260.005 413.198 259.655C414.534 259.32 415.46 259.29 416.143 259.579C416.417 259.686 417.115 260.249 417.692 260.842C418.937 262.075 419.606 262.333 421.23 262.227C422.475 262.136 423.417 261.679 424.677 260.568C426.211 259.229 426.864 259.001 429.567 258.91C430.827 258.864 431.92 258.788 431.966 258.727C432.027 258.666 432.133 258.286 432.209 257.89C432.285 257.494 432.467 257.068 432.604 256.962C432.771 256.84 433.408 256.779 434.426 256.779C437.463 256.779 437.964 256.079 437.189 252.868C436.977 252.031 436.855 250.981 436.84 250.053C436.825 248.653 436.81 248.562 436.385 248.12C436.111 247.831 435.473 247.496 434.654 247.192C433.029 246.599 432.543 246.264 432.345 245.549C432.163 244.925 432.27 244.438 433.089 242.17C433.636 240.664 433.712 239.492 433.302 239.005C433.12 238.792 432.573 238.579 431.708 238.381C430.144 238.016 429.157 237.544 427.836 236.525C427.304 236.114 426.682 235.733 426.454 235.672C426.226 235.596 425.254 235.551 424.298 235.566C422.916 235.581 422.111 235.672 420.456 236.053C418.026 236.616 416.219 236.677 413.744 236.312C411.269 235.931 410.221 235.459 410.358 234.759C410.419 234.409 411.588 233.77 413.076 233.268C413.714 233.055 414.64 232.629 415.126 232.325C416.66 231.381 417.054 231.214 417.768 231.214C418.846 231.214 420.334 230.925 420.972 230.59C422.46 229.829 422.324 227.957 420.593 225.522C418.922 223.179 417.222 221.779 415.05 220.927C413.486 220.333 412.529 219.42 411.375 217.427C408.976 213.303 407.868 212.542 403.191 211.735C402.31 211.583 401.202 211.309 400.716 211.127C399.622 210.716 398.15 209.392 397.633 208.342C397.132 207.383 396.813 205.861 396.813 204.507C396.813 203.183 396.494 202.529 395.583 201.966C393.382 200.596 387.657 200.398 380.444 201.479C376.603 202.042 374.796 201.935 374.796 201.159C374.796 201.037 375.206 200.489 375.707 199.926C376.937 198.526 377.134 198.07 377.028 196.868C376.937 195.97 376.952 195.909 377.255 195.909C377.422 195.909 378.318 196.259 379.245 196.67C381.446 197.689 382.509 197.933 384.666 197.933C387.217 197.933 389.039 197.4 390.254 196.289C391.787 194.905 391.165 193.337 388.219 191.176C387.323 190.522 386.791 189.989 386.518 189.518C386.306 189.137 385.835 188.407 385.47 187.874C384.483 186.474 384.104 185.531 383.754 183.583C383.39 181.498 383.253 181.072 382.616 179.778C382.023 178.607 381.219 177.496 379.518 175.518C377.863 173.585 376.481 171.546 374.796 168.518C372.062 163.633 370.225 161.35 367.689 159.722C365.366 158.23 362.769 157.941 358.426 158.702C357.698 158.824 356.452 158.93 355.648 158.93C354.418 158.93 354.114 158.885 353.826 158.641C353.476 158.352 353.476 158.322 353.704 157.911C354.129 157.18 355.951 155.917 358.168 154.822C359.353 154.243 360.431 153.635 360.583 153.467C360.735 153.3 360.993 152.691 361.145 152.143C361.524 150.774 361.995 150.135 363.559 148.887C365.821 147.076 365.852 146.772 363.984 145.448C362.526 144.428 361.539 143.454 361.099 142.602C360.932 142.267 360.659 141.354 360.507 140.563C360.036 138.219 360.112 138.28 356.422 136.713C351.593 134.659 350.257 133.806 348.222 131.524C345.854 128.845 344.927 128.298 342.331 128.039C340.402 127.841 339.795 127.658 339.43 127.172C338.99 126.624 339.02 126.38 339.719 124.752C340.053 123.961 340.326 123.154 340.326 122.956C340.326 122.439 339.613 121.937 338.246 121.435C336.105 120.674 335.407 120.126 334.647 118.635C334.04 117.463 333.357 116.611 332.795 116.382C332.4 116.215 331.853 116.184 330.411 116.261C328.194 116.367 327.769 116.215 327.025 115.058C326.311 113.963 325.901 113.582 325.066 113.187C323.365 112.38 322.226 112.989 320.981 115.363C320.024 117.189 318.962 118.193 318.339 117.858C317.489 117.402 316.896 116.048 316.35 113.354C315.955 111.33 315.697 110.584 314.786 108.88C313.692 106.795 313.449 106.095 313.298 104.528C313.146 102.808 312.918 102.337 311.946 101.728C310.807 101.043 310.701 100.8 310.458 98.3191C310.109 94.6517 309.881 94.4387 305.553 93.5713C302.319 92.9321 301.788 92.7343 300.801 91.8517C300.375 91.4713 299.677 91.0147 299.252 90.8169C298.827 90.6191 296.579 89.9799 294.241 89.3865C287.727 87.7278 285.449 86.906 284.34 85.8408C283.748 85.2777 283.703 84.7756 284.143 84.0147C284.401 83.5734 284.462 83.1625 284.508 81.5799C284.568 79.2516 284.477 79.0386 283.399 79.0386C282.837 79.0386 282.488 79.1603 281.774 79.5864C279.709 80.8647 279.011 81.2451 277.401 82.0212C274.577 83.3755 272.314 83.9842 271.175 83.6951C269.991 83.3908 269.869 82.2951 270.765 79.9212C271.783 77.2429 271.919 75.919 271.251 75.3255C270.856 74.9603 270.082 74.8994 269.11 75.1581ZM245.483 174.346C244.557 174.985 243.433 176.446 242.977 177.602C242.719 178.272 242.628 178.82 242.628 179.931C242.598 181.696 242.279 182.457 241.246 183.111C240.654 183.492 240.381 183.552 238.255 183.72C235.294 183.948 229.205 184.633 228.734 184.785C228.431 184.876 228.309 185.089 228.081 185.957C227.929 186.535 227.489 187.661 227.094 188.452C226.517 189.655 226.198 190.096 225.09 191.192C223.678 192.592 222.448 193.352 221.157 193.642C220.003 193.885 219.259 194.494 218.712 195.666C217.847 197.476 215.721 198.907 213.383 199.272C211.697 199.531 210.361 199.272 208.523 198.298C206.458 197.218 205.654 196.959 203.892 196.868C202.222 196.776 200.81 197.02 199.701 197.598C198.775 198.07 198.82 197.842 199.807 197.142C201.296 196.076 202.085 195.848 204.272 195.863C206.291 195.863 207.552 196.137 209.784 197.066C212.077 198.009 214.552 197.613 216.374 196.016C216.784 195.65 216.875 195.468 216.875 194.935C216.89 193.611 218.044 192.135 219.335 191.8C221.658 191.222 223.222 190.005 224.224 188.026C224.376 187.737 224.589 187.022 224.71 186.429C224.877 185.683 225.12 185.059 225.545 184.42C225.91 183.857 226.35 182.852 226.684 181.818C227.018 180.768 227.352 180.007 227.55 179.824C227.732 179.657 229.19 178.926 230.799 178.196C237.086 175.35 239.348 174.605 243.752 173.95C243.964 173.905 244.602 173.874 245.179 173.859L246.212 173.844L245.483 174.346ZM256.127 175.32C256.765 175.472 258.39 175.578 261.67 175.67C266.666 175.791 267.318 175.883 269.232 176.75C270.841 177.465 272.102 178.485 274.729 181.178L277.234 183.735H278.069C278.525 183.735 280.028 183.537 281.41 183.294C287.286 182.259 289.61 182.32 293.558 183.659C294.438 183.948 295.44 184.192 295.82 184.192C296.2 184.192 297.703 183.948 299.161 183.659C302.198 183.065 304.293 182.792 304.992 182.913C305.265 182.959 306.13 183.294 306.92 183.674C307.71 184.039 309.076 184.511 309.957 184.724C310.838 184.937 312.037 185.211 312.614 185.348C314.194 185.729 315.697 186.413 318.157 187.905C320.966 189.594 321.437 189.731 323.866 189.594C325.643 189.487 325.764 189.502 326.539 189.852C326.979 190.065 327.647 190.492 328.027 190.811C328.406 191.131 329.075 191.633 329.53 191.937C330.274 192.424 330.456 192.485 331.352 192.485C332.233 192.485 332.582 192.379 334.328 191.618C336.515 190.659 337.548 190.355 338.109 190.492C338.307 190.537 338.838 190.887 339.279 191.268C340.417 192.242 341.435 192.592 343.287 192.668C344.684 192.729 344.958 192.698 346.704 192.181C349.969 191.222 351.047 191.283 353.324 192.576C355.724 193.961 355.875 194.007 358.533 193.961C360.294 193.946 361.084 193.992 361.797 194.174C362.299 194.311 363.377 194.479 364.166 194.539L365.609 194.631L365.001 194.935C364.47 195.194 364.121 195.224 362.116 195.179C360.492 195.148 359.383 195.209 358.275 195.392C356.954 195.62 356.559 195.62 355.693 195.468C354.752 195.3 352.717 194.418 351.381 193.611L350.834 193.276L349.407 193.976C346.704 195.285 345.292 196.639 345.292 197.887C345.292 198.816 345.869 199.439 347.372 200.17C348.435 200.687 348.663 200.855 348.723 201.22C348.769 201.448 349.103 202.011 349.468 202.453C350.409 203.609 350.409 203.609 350.303 203.883C350.166 204.218 348.708 204.872 346.704 205.496C343.697 206.424 342.619 207.2 342.483 208.524C342.391 209.468 342.832 210.457 343.955 211.933C344.624 212.816 345.185 213.79 345.185 214.079C345.185 214.124 344.973 214.398 344.715 214.703C344.183 215.311 343.075 215.692 339.947 216.361C335.513 217.305 334.693 218.416 333.053 225.538C331.929 230.361 331.094 231.792 328.68 232.918C327.738 233.359 325.871 233.785 324.808 233.801C323.638 233.801 320.693 234.425 317.625 235.307C312.432 236.798 311.384 236.859 309.213 235.764C308.241 235.277 307.755 234.896 306.677 233.755C305.326 232.34 305.068 231.975 302.623 228.246C300.467 224.929 298.341 222.722 295.471 220.82C291.174 218.005 286.618 216.605 276.93 215.174C272.466 214.505 271.525 214.307 269.11 213.531C266.483 212.679 264.494 211.781 258.861 208.92C253.743 206.333 250.448 204.933 247.518 204.111L245.741 203.609L247.092 203.274C249.826 202.574 252.513 200.824 255.444 197.796C257.585 195.589 258.785 194.098 262.232 189.335C266.043 184.085 267.501 182.335 269.217 180.996L269.702 180.615L268.837 179.976C267.561 179.018 265.785 178.135 264.494 177.8C263.887 177.648 262.414 177.405 261.229 177.268C260.045 177.131 258.694 176.918 258.208 176.796C257.145 176.522 255.004 175.502 254.609 175.061L254.32 174.741L254.761 174.909C255.019 175 255.626 175.183 256.127 175.32ZM240.563 216.605C244.39 217.077 248.763 218.355 252.863 220.211C254.153 220.79 261.776 224.807 269.778 229.129L284.34 236.996L285.039 236.555C286.178 235.809 286.922 235.688 288.729 235.916C290.976 236.19 291.508 236.038 294.241 234.348C295.228 233.74 296.367 233.344 297.126 233.344C297.612 233.344 299.221 233.725 299.586 233.922C299.692 233.998 299.221 234.044 298.538 234.044C296.868 234.029 296.002 234.44 294.317 235.992C293.633 236.631 292.677 237.331 292.206 237.559C291.386 237.97 291.295 237.985 289.184 237.94C287.21 237.909 286.952 237.925 286.497 238.214C285.859 238.609 285.206 239.614 284.614 241.151C282.943 245.381 281.562 246.675 277.948 247.436C275.852 247.862 274.956 248.272 273.787 249.322C272.345 250.616 272.178 250.601 268.397 249.033C265.284 247.74 263.705 247.481 263.264 248.151C263.067 248.47 263.067 248.653 263.295 249.886C263.659 251.94 263.325 252.975 262.308 252.975C261.563 252.975 259.817 251.97 258.132 250.57C255.292 248.212 255.034 248.272 254.199 251.468C253.956 252.396 253.667 253.34 253.546 253.568C253.303 254.07 252.24 255.059 251.45 255.546C250.631 256.049 250.57 256.49 251.101 258.407C251.526 259.914 250.965 260.796 249.127 261.557C246.834 262.516 245.954 263.201 245.255 264.57C244.496 266.062 243.98 266.199 241.626 265.468C239.865 264.92 238.407 264.54 238.058 264.54C237.891 264.54 238.209 264.981 238.984 265.803C239.956 266.838 241.231 268.527 242.006 269.851C242.066 269.973 241.383 269.394 240.472 268.588C234.565 263.277 226.335 260.127 218.393 260.127C211.682 260.127 205.289 262.212 197.439 266.944C195.085 268.36 191.319 270.87 186.399 274.31C180.31 278.586 179.657 279.027 179.612 278.966C179.581 278.951 183.788 274.568 188.95 269.257L198.335 259.594L198.744 258.453C198.972 257.829 199.762 255.775 200.521 253.888C208.129 234.683 216.07 223.772 225.834 219.055C228.582 217.731 231.574 216.848 234.337 216.559C235.537 216.437 239.363 216.468 240.563 216.605ZM136.017 388.791C168.481 389.795 193.885 390.328 225.378 390.693C242.188 390.891 294.894 390.891 311.779 390.693C330.487 390.48 358.092 390.024 361.57 389.856C362.526 389.811 363.27 389.811 363.225 389.856C362.982 390.115 338.686 391.819 324.307 392.595C260.273 396.05 193.521 394.787 130.338 388.943C126.42 388.578 124.932 388.35 127.452 388.502C128.151 388.532 132.008 388.669 136.017 388.791Z" fill="#0E1A12"/>
</svg>
