<svg width="300" height="300" viewBox="0 0 300 300" fill="none" xmlns="http://www.w3.org/2000/svg">
<circle cx="150" cy="150" r="150" fill="#0D63F8"/>
<path d="M127 104H173L124 196.5H76L127 104Z" fill="#F5F5F5"/>
<path d="M67.0488 196.5C67.0488 196.5 22.5488 196.5 21.0488 196.5C19.5488 196.5 53.0488 135 60.5488 123C68.0488 111 81.5488 104 91.5488 104C101.549 104 118.049 104 118.049 104L67.0488 196.5Z" fill="#F5F5F5"/>
<path d="M182 104C182 104 226.5 104 228 104C229.5 104 196 165.5 188.5 177.5C181 189.5 167.5 196.5 157.5 196.5C147.5 196.5 131 196.5 131 196.5L182 104Z" fill="#F5F5F5"/>
<circle cx="255.5" cy="126.5" r="23.5" fill="#F5F5F5"/>
</svg>
