<svg width="300" height="300" viewBox="0 0 300 300" fill="none" xmlns="http://www.w3.org/2000/svg">
<circle cx="150" cy="150" r="150" fill="#F7EB21"/>
<path d="M127 108H173L124 200.5H76L127 108Z" fill="#15171B"/>
<path d="M67.0488 200.5C67.0488 200.5 22.5488 200.5 21.0488 200.5C19.5488 200.5 53.0488 139 60.5488 127C68.0488 115 81.5488 108 91.5488 108C101.549 108 118.049 108 118.049 108L67.0488 200.5Z" fill="#15171B"/>
<path d="M182 108C182 108 226.5 108 228 108C229.5 108 196 169.5 188.5 181.5C181 193.5 167.5 200.5 157.5 200.5C147.5 200.5 131 200.5 131 200.5L182 108Z" fill="#15171B"/>
<circle cx="255.5" cy="130.5" r="23.5" fill="#15171B"/>
</svg>
